<?xml version="1.0" encoding="UTF-8"?>
<svg xmlns="http://www.w3.org/2000/svg" xmlns:xlink="http://www.w3.org/1999/xlink" width="128px" height="31px" viewBox="0 0 126 31" version="1.1">
<defs>
<linearGradient id="linear0" gradientUnits="userSpaceOnUse" x1="0" y1="0.480652" x2="1" y2="0.50391" gradientTransform="matrix(126,0,0,30.910156,0,0)">
<stop offset="0" style="stop-color:rgb(90.980392%,27.843137%,63.921569%);stop-opacity:1;"/>
<stop offset="0.256871" style="stop-color:rgb(85.490196%,35.294118%,96.862745%);stop-opacity:1;"/>
<stop offset="0.337595" style="stop-color:rgb(86.666667%,34.117647%,96.470588%);stop-opacity:1;"/>
<stop offset="0.564417" style="stop-color:rgb(72.156863%,28.235294%,95.686275%);stop-opacity:1;"/>
<stop offset="1" style="stop-color:rgb(53.333333%,25.882353%,96.470588%);stop-opacity:1;"/>
</linearGradient>
<linearGradient id="linear1" gradientUnits="userSpaceOnUse" x1="0.366151" y1="0.416559" x2="0.332923" y2="1" gradientTransform="matrix(21.726562,0,0,30.457031,0,0)">
<stop offset="0" style="stop-color:rgb(87.843137%,20.392157%,25.098039%);stop-opacity:0.2;"/>
<stop offset="0.28023" style="stop-color:rgb(87.843137%,20.392157%,25.098039%);stop-opacity:0.619608;"/>
<stop offset="1" style="stop-color:rgb(87.843137%,20.392157%,25.098039%);stop-opacity:1;"/>
</linearGradient>
</defs>
<g id="surface1">
<path style=" stroke:none;fill-rule:nonzero;fill:url(#linear0);" d="M 28.554688 5.078125 L 27.523438 21.394531 L 17.664062 0 Z M 21.726562 26.175781 L 14.277344 30.457031 L 6.828125 26.175781 L 8.34375 22.476562 L 20.210938 22.476562 Z M 14.277344 8.121094 L 18.179688 17.683594 L 10.375 17.683594 Z M 1.019531 21.394531 L 0 5.078125 L 10.890625 0 Z M 117.230469 24.777344 L 117.230469 9.285156 L 120.746094 9.285156 L 120.746094 11.867188 L 120.90625 11.867188 C 121.183594 10.972656 121.667969 10.28125 122.351562 9.792969 C 123.035156 9.304688 123.816406 9.0625 124.699219 9.0625 C 124.898438 9.0625 125.125 9.070312 125.375 9.085938 C 125.625 9.105469 125.832031 9.128906 126 9.164062 L 126 12.523438 C 125.847656 12.46875 125.605469 12.417969 125.273438 12.375 C 124.945312 12.332031 124.625 12.308594 124.320312 12.308594 C 123.65625 12.308594 123.066406 12.453125 122.542969 12.738281 C 122.019531 13.023438 121.605469 13.417969 121.304688 13.925781 C 121.003906 14.429688 120.855469 15.011719 120.855469 15.667969 L 120.855469 24.777344 Z M 109.871094 9.082031 C 110.609375 9.082031 111.347656 9.171875 112.082031 9.34375 C 112.816406 9.519531 113.484375 9.808594 114.09375 10.207031 C 114.699219 10.609375 115.1875 11.152344 115.558594 11.835938 C 115.929688 12.523438 116.113281 13.378906 116.113281 14.410156 L 116.113281 24.777344 L 112.632812 24.777344 L 112.632812 22.648438 L 112.511719 22.648438 C 112.292969 23.078125 111.984375 23.480469 111.585938 23.855469 C 111.1875 24.226562 110.691406 24.527344 110.09375 24.753906 C 109.496094 24.976562 108.796875 25.089844 107.996094 25.089844 C 107.023438 25.089844 106.148438 24.914062 105.371094 24.5625 C 104.59375 24.207031 103.980469 23.683594 103.527344 22.992188 C 103.078125 22.300781 102.851562 21.445312 102.851562 20.429688 C 102.851562 19.554688 103.011719 18.832031 103.332031 18.261719 C 103.652344 17.691406 104.089844 17.234375 104.644531 16.890625 C 105.199219 16.546875 105.824219 16.285156 106.519531 16.109375 C 107.21875 15.929688 107.941406 15.800781 108.6875 15.71875 L 109.140625 15.671875 L 109.660156 15.613281 C 110.105469 15.5625 110.492188 15.515625 110.820312 15.46875 L 110.878906 15.460938 C 111.441406 15.386719 111.851562 15.265625 112.105469 15.097656 C 112.363281 14.933594 112.492188 14.675781 112.492188 14.328125 L 112.492188 14.265625 C 112.492188 13.507812 112.269531 12.917969 111.820312 12.503906 C 111.375 12.085938 110.730469 11.875 109.890625 11.875 C 109.003906 11.875 108.300781 12.070312 107.78125 12.460938 C 107.265625 12.851562 106.917969 13.3125 106.738281 13.84375 L 103.351562 13.359375 C 103.621094 12.417969 104.058594 11.628906 104.675781 10.992188 C 105.289062 10.359375 106.039062 9.882812 106.925781 9.5625 C 107.8125 9.242188 108.792969 9.082031 109.871094 9.082031 Z M 112.5 17.394531 C 112.386719 17.488281 112.195312 17.574219 111.925781 17.65625 C 111.65625 17.738281 111.355469 17.808594 111.019531 17.867188 C 110.753906 17.917969 110.488281 17.960938 110.226562 18 L 109.953125 18.039062 L 109.179688 18.152344 C 108.636719 18.226562 108.15625 18.347656 107.726562 18.515625 C 107.300781 18.683594 106.964844 18.914062 106.714844 19.214844 C 106.46875 19.515625 106.347656 19.898438 106.347656 20.371094 C 106.347656 21.042969 106.589844 21.550781 107.078125 21.894531 C 107.5625 22.234375 108.183594 22.40625 108.9375 22.40625 C 109.664062 22.40625 110.296875 22.261719 110.832031 21.96875 C 111.363281 21.675781 111.777344 21.289062 112.066406 20.804688 C 112.355469 20.320312 112.5 19.792969 112.5 19.21875 Z M 98.621094 24.777344 L 102.246094 24.777344 L 102.246094 4.121094 L 98.621094 4.121094 Z M 93.8125 18.261719 L 93.8125 9.285156 L 97.4375 9.285156 L 97.4375 24.777344 L 93.921875 24.777344 L 93.921875 22.023438 L 93.761719 22.023438 C 93.414062 22.890625 92.847656 23.601562 92.054688 24.152344 C 91.265625 24.703125 90.292969 24.980469 89.136719 24.980469 C 88.128906 24.980469 87.242188 24.753906 86.46875 24.296875 C 85.699219 23.84375 85.097656 23.183594 84.664062 22.3125 C 84.230469 21.441406 84.011719 20.386719 84.011719 19.148438 L 84.011719 9.285156 L 87.636719 9.285156 L 87.636719 18.585938 C 87.636719 19.566406 87.902344 20.347656 88.4375 20.925781 C 88.972656 21.503906 89.671875 21.792969 90.539062 21.792969 C 91.074219 21.792969 91.589844 21.660156 92.089844 21.398438 C 92.589844 21.136719 93.003906 20.746094 93.328125 20.222656 C 93.640625 19.71875 93.800781 19.089844 93.8125 18.332031 Z M 74.640625 9.082031 C 75.539062 9.082031 76.28125 9.234375 76.867188 9.542969 C 77.449219 9.847656 77.914062 10.214844 78.261719 10.640625 C 78.609375 11.066406 78.871094 11.46875 79.054688 11.847656 L 79.253906 11.847656 L 79.253906 9.285156 L 82.828125 9.285156 L 82.828125 25.03125 C 82.828125 26.355469 82.511719 27.449219 81.886719 28.316406 C 81.257812 29.1875 80.402344 29.835938 79.3125 30.265625 C 78.226562 30.695312 76.992188 30.910156 75.609375 30.910156 C 74.308594 30.910156 73.191406 30.734375 72.257812 30.382812 C 71.324219 30.027344 70.570312 29.554688 70.003906 28.964844 C 69.4375 28.371094 69.042969 27.714844 68.824219 26.996094 L 72.085938 26.199219 C 72.234375 26.503906 72.445312 26.804688 72.726562 27.101562 C 73.007812 27.402344 73.386719 27.652344 73.863281 27.847656 C 74.339844 28.046875 74.941406 28.148438 75.671875 28.148438 C 76.699219 28.148438 77.546875 27.894531 78.222656 27.394531 C 78.894531 26.894531 79.234375 26.070312 79.234375 24.929688 L 79.234375 21.992188 L 79.054688 21.992188 C 78.867188 22.371094 78.59375 22.757812 78.238281 23.152344 C 77.878906 23.550781 77.410156 23.882812 76.824219 24.152344 C 76.242188 24.421875 75.511719 24.554688 74.628906 24.554688 C 73.449219 24.554688 72.378906 24.273438 71.421875 23.714844 C 70.464844 23.152344 69.703125 22.3125 69.140625 21.191406 C 68.574219 20.070312 68.292969 18.667969 68.292969 16.980469 C 68.292969 15.28125 68.574219 13.84375 69.140625 12.667969 C 69.703125 11.496094 70.464844 10.605469 71.425781 9.996094 C 72.386719 9.386719 73.457031 9.082031 74.640625 9.082031 Z M 75.640625 12.078125 C 74.832031 12.078125 74.160156 12.289062 73.617188 12.714844 C 73.078125 13.136719 72.671875 13.71875 72.398438 14.453125 C 72.125 15.191406 71.988281 16.027344 71.988281 16.960938 C 71.988281 17.910156 72.125 18.738281 72.402344 19.445312 C 72.679688 20.15625 73.089844 20.707031 73.632812 21.101562 C 74.175781 21.496094 74.847656 21.691406 75.640625 21.691406 C 76.40625 21.691406 77.0625 21.503906 77.601562 21.125 C 78.140625 20.75 78.554688 20.207031 78.832031 19.503906 C 79.113281 18.796875 79.253906 17.949219 79.253906 16.960938 C 79.253906 15.984375 79.113281 15.132812 78.839844 14.398438 C 78.5625 13.664062 78.152344 13.09375 77.617188 12.6875 C 77.078125 12.28125 76.421875 12.078125 75.640625 12.078125 Z M 57.757812 15.699219 L 57.757812 24.777344 L 54.132812 24.777344 L 54.132812 9.285156 L 57.597656 9.285156 L 57.597656 11.917969 L 57.777344 11.917969 C 58.128906 11.050781 58.695312 10.359375 59.472656 9.847656 C 60.25 9.339844 61.214844 9.082031 62.359375 9.082031 C 63.421875 9.082031 64.347656 9.3125 65.140625 9.769531 C 65.929688 10.226562 66.542969 10.886719 66.980469 11.753906 C 67.40625 12.601562 67.621094 13.625 67.625 14.824219 L 67.625 24.777344 L 64.003906 24.777344 L 64.003906 15.476562 C 64.003906 14.441406 63.738281 13.632812 63.207031 13.046875 C 62.675781 12.460938 61.945312 12.167969 61.011719 12.167969 C 60.375 12.167969 59.8125 12.308594 59.324219 12.585938 C 58.832031 12.867188 58.449219 13.269531 58.171875 13.792969 C 57.90625 14.300781 57.765625 14.910156 57.757812 15.625 Z M 46.621094 4.121094 L 53.847656 24.777344 L 49.882812 24.777344 L 48.183594 19.683594 L 40.476562 19.683594 L 38.78125 24.777344 L 34.820312 24.777344 L 42.035156 4.121094 Z M 44.40625 8.355469 L 44.246094 8.355469 L 41.476562 16.679688 L 47.183594 16.679688 Z M 44.40625 8.355469 "/>
<path style=" stroke:none;fill-rule:nonzero;fill:url(#linear1);" d="M 21.726562 26.175781 L 14.277344 30.457031 L 6.828125 26.175781 L 8.34375 22.476562 L 20.210938 22.476562 Z M 14.277344 8.121094 L 18.179688 17.683594 L 10.375 17.683594 Z M 1.019531 21.394531 L 0 5.078125 L 10.890625 0 Z M 1.019531 21.394531 "/>
</g>
</svg>
