<?xml version="1.0" encoding="UTF-8"?>
<svg xmlns="http://www.w3.org/2000/svg" xmlns:xlink="http://www.w3.org/1999/xlink" width="128px" height="128px" viewBox="0 0 128 128" version="1.1">
<g id="surface1">
<path style=" stroke:none;fill-rule:nonzero;fill:rgb(6.666667%,16.862746%,28.627452%);fill-opacity:1;" d="M 80.113281 89.257812 L 93.929688 89.257812 L 71.875 32.023438 L 56.601562 32.023438 L 34.546875 89.257812 L 48.363281 89.257812 L 51.96875 79.5625 L 72.804688 79.5625 L 69.03125 68.835938 L 55.3125 68.835938 L 64.238281 44.210938 Z M 125.667969 46.882812 C 125.179688 45.117188 123.351562 44.078125 121.578125 44.570312 C 119.808594 45.0625 118.773438 46.894531 119.261719 48.660156 C 120.648438 53.65625 121.351562 58.816406 121.351562 64 C 121.351562 95.625 95.625 121.351562 64 121.351562 C 32.375 121.351562 6.648438 95.625 6.648438 64 C 6.648438 32.375 32.375 6.648438 64 6.648438 C 77.398438 6.648438 90.359375 11.40625 100.589844 19.875 C 100.191406 20.824219 99.96875 21.867188 99.96875 22.960938 C 99.96875 27.378906 103.550781 30.960938 107.96875 30.960938 C 112.386719 30.960938 115.96875 27.378906 115.96875 22.960938 C 115.96875 18.546875 112.386719 14.964844 107.96875 14.964844 C 107.117188 14.964844 106.300781 15.097656 105.53125 15.34375 C 94.011719 5.527344 79.257812 0 64 0 C 28.710938 0 0 28.710938 0 64 C 0 99.289062 28.710938 128 64 128 C 99.289062 128 128 99.289062 128 64 C 128 58.214844 127.214844 52.453125 125.667969 46.882812 Z M 125.667969 46.882812 "/>
</g>
</svg>
