<?xml version="1.0" encoding="UTF-8"?>
<svg xmlns="http://www.w3.org/2000/svg" xmlns:xlink="http://www.w3.org/1999/xlink" width="px" height="0px" viewBox="0 0 128 144" version="1.1">
<g id="surface1">
<path style=" stroke:none;fill-rule:nonzero;fill:rgb(39.215687%,60.392159%,82.352942%);fill-opacity:1;" d="M 127.992188 42.296875 C 127.992188 39.875 127.476562 37.738281 126.429688 35.90625 C 125.402344 34.101562 123.863281 32.589844 121.796875 31.394531 C 104.757812 21.566406 87.699219 11.773438 70.664062 1.9375 C 66.074219 -0.714844 61.621094 -0.617188 57.0625 2.070312 C 50.28125 6.070312 16.320312 25.527344 6.203125 31.386719 C 2.035156 33.800781 0.0078125 37.492188 0.0078125 42.289062 C 0 62.050781 0.0078125 81.808594 0 101.570312 C 0 103.9375 0.496094 106.03125 1.496094 107.839844 C 2.523438 109.699219 4.085938 111.25 6.195312 112.472656 C 16.316406 118.335938 50.277344 137.789062 57.058594 141.789062 C 61.621094 144.480469 66.074219 144.578125 70.667969 141.925781 C 87.703125 132.085938 104.761719 122.292969 121.804688 112.46875 C 123.914062 111.246094 125.476562 109.691406 126.503906 107.832031 C 127.503906 106.027344 128 103.929688 128 101.566406 C 128 101.566406 128 62.054688 127.992188 42.296875 "/>
<path style=" stroke:none;fill-rule:nonzero;fill:rgb(0%,26.666668%,50.980395%);fill-opacity:1;" d="M 64.195312 71.738281 L 1.496094 107.839844 C 2.523438 109.699219 4.085938 111.25 6.195312 112.472656 C 16.316406 118.335938 50.277344 137.789062 57.058594 141.789062 C 61.621094 144.480469 66.074219 144.578125 70.667969 141.925781 C 87.703125 132.085938 104.761719 122.292969 121.804688 112.46875 C 123.914062 111.246094 125.476562 109.691406 126.503906 107.832031 L 64.195312 71.738281 "/>
<path style=" stroke:none;fill-rule:nonzero;fill:rgb(10.196079%,27.450982%,45.490196%);fill-opacity:1;" d="M 45.625 82.429688 C 49.273438 88.800781 56.132812 93.097656 64 93.097656 C 71.917969 93.097656 78.8125 88.746094 82.445312 82.308594 L 64.195312 71.738281 L 45.625 82.429688 "/>
<path style=" stroke:none;fill-rule:nonzero;fill:rgb(0.392157%,34.509805%,61.176473%);fill-opacity:1;" d="M 127.992188 42.296875 C 127.992188 39.875 127.476562 37.738281 126.429688 35.90625 L 64.195312 71.738281 L 126.503906 107.832031 C 127.503906 106.027344 128 103.929688 128 101.566406 C 128 101.566406 128 62.054688 127.992188 42.296875 "/>
<path style=" stroke:none;fill-rule:nonzero;fill:rgb(100%,100%,100%);fill-opacity:1;" d="M 124.566406 74.316406 L 119.699219 74.316406 L 119.699219 79.1875 L 114.828125 79.1875 L 114.828125 74.316406 L 109.960938 74.316406 L 109.960938 69.449219 L 114.828125 69.449219 L 114.828125 64.582031 L 119.699219 64.582031 L 119.699219 69.449219 L 124.566406 69.449219 Z M 64 29.421875 C 79.566406 29.421875 93.179688 37.792969 100.585938 50.277344 L 100.808594 50.65625 L 82.304688 61.3125 C 78.640625 55.007812 71.816406 50.765625 64 50.765625 C 52.308594 50.765625 42.832031 60.242188 42.832031 71.929688 C 42.832031 75.753906 43.851562 79.335938 45.625 82.429688 C 49.273438 88.800781 56.132812 93.097656 64 93.097656 C 71.828125 93.097656 78.664062 88.839844 82.324219 82.519531 L 82.445312 82.308594 L 100.917969 93.011719 C 93.59375 105.808594 79.804688 114.4375 64 114.4375 C 48.226562 114.4375 34.457031 105.84375 27.121094 93.082031 C 23.542969 86.855469 21.492188 79.632812 21.492188 71.929688 C 21.492188 48.453125 40.523438 29.421875 64 29.421875 Z M 101.933594 64.582031 L 101.933594 69.449219 L 106.800781 69.449219 L 106.800781 74.316406 L 101.933594 74.316406 L 101.933594 79.1875 L 97.0625 79.1875 L 97.0625 74.316406 L 92.195312 74.316406 L 92.195312 69.449219 L 97.0625 69.449219 L 97.0625 64.582031 Z M 101.933594 64.582031 "/>
</g>
</svg>
