<?xml version="1.0" encoding="UTF-8"?>
<svg xmlns="http://www.w3.org/2000/svg" xmlns:xlink="http://www.w3.org/1999/xlink" width="128px" height="128px" viewBox="0 0 128 128" version="1.1">
<defs>
<linearGradient id="linear0" gradientUnits="userSpaceOnUse" x1="0.0631991" y1="0.440285" x2="0.875201" y2="0.584064" gradientTransform="matrix(78.171875,0,0,51.839844,1.558594,76.160156)">
<stop offset="0" style="stop-color:rgb(19.215686%,36.078431%,33.333333%);stop-opacity:1;"/>
<stop offset="1" style="stop-color:rgb(3.529412%,16.078431%,24.705882%);stop-opacity:1;"/>
</linearGradient>
<linearGradient id="linear1" gradientUnits="userSpaceOnUse" x1="0.542975" y1="0.272621" x2="0.5" y2="1" gradientTransform="matrix(44.097656,0,0,76.660156,0,4.296875)">
<stop offset="0" style="stop-color:rgb(30.980392%,70.196078%,55.294118%);stop-opacity:1;"/>
<stop offset="1" style="stop-color:rgb(19.215686%,36.078431%,33.333333%);stop-opacity:1;"/>
</linearGradient>
<linearGradient id="linear2" gradientUnits="userSpaceOnUse" x1="0.13909" y1="0.5" x2="0.708194" y2="0.549595" gradientTransform="matrix(81.296875,0,0,38.648438,39.449219,0)">
<stop offset="0" style="stop-color:rgb(30.980392%,70.196078%,55.294118%);stop-opacity:1;"/>
<stop offset="1" style="stop-color:rgb(59.215686%,87.058824%,75.294118%);stop-opacity:1;"/>
</linearGradient>
<linearGradient id="linear3" gradientUnits="userSpaceOnUse" x1="0.538596" y1="0.308923" x2="0.383885" y2="0.957936" gradientTransform="matrix(38.511719,0,0,86.285156,89.488281,34.523438)">
<stop offset="0" style="stop-color:rgb(59.215686%,87.058824%,75.294118%);stop-opacity:1;"/>
<stop offset="1" style="stop-color:rgb(100%,100%,94.117647%);stop-opacity:0;"/>
<stop offset="1" style="stop-color:rgb(100%,100%,94.117647%);stop-opacity:0;"/>
</linearGradient>
</defs>
<g id="surface1">
<path style=" stroke:none;fill-rule:nonzero;fill:url(#linear0);" d="M 70.824219 111.972656 L 68.65625 117.234375 C 68.226562 118.277344 67.242188 118.980469 66.136719 119.03125 C 65.402344 119.058594 64.664062 119.078125 63.917969 119.078125 C 38.40625 119.0625 15.835938 101.019531 10.242188 76.160156 L 1.558594 78.125 C 4.695312 92.070312 12.574219 104.730469 23.738281 113.773438 C 35.035156 122.921875 49.265625 127.972656 63.824219 128 C 63.84375 128 63.953125 128 63.953125 128 C 64.808594 128 65.65625 127.980469 66.503906 127.945312 C 71.070312 127.753906 75.152344 124.882812 76.898438 120.625 L 79.730469 113.746094 Z M 70.824219 111.972656 "/>
<path style=" stroke:none;fill-rule:nonzero;fill:url(#linear1);" d="M 2.269531 80.957031 C 0.765625 75.460938 0 69.753906 0 64.003906 C 0 37.757812 16.429688 13.761719 40.890625 4.296875 L 44.097656 12.621094 C 23.042969 20.769531 8.902344 41.417969 8.902344 64.003906 C 8.902344 68.957031 9.558594 73.863281 10.851562 78.59375 Z M 2.269531 80.957031 "/>
<path style=" stroke:none;fill-rule:nonzero;fill:url(#linear2);" d="M 112.847656 38.648438 C 103.328125 20.316406 84.59375 8.929688 63.960938 8.929688 C 56.652344 8.929688 49.546875 10.339844 42.859375 13.117188 L 39.449219 4.871094 C 47.222656 1.644531 55.46875 0 63.960938 0 C 87.929688 0 109.6875 13.226562 120.746094 34.523438 Z M 112.847656 38.648438 "/>
<path style=" stroke:none;fill-rule:nonzero;fill:rgb(3.529412%,16.078432%,24.705882%);fill-opacity:1;" d="M 44.863281 50.796875 C 50.027344 50.796875 54.230469 53.558594 56.390625 58.378906 L 56.5625 58.753906 L 65.234375 55.800781 L 65.050781 55.355469 C 61.691406 47.152344 53.957031 42.054688 44.863281 42.054688 C 38.46875 42.054688 33.273438 44.109375 28.980469 48.332031 C 24.710938 52.523438 22.550781 57.800781 22.550781 64.015625 C 22.550781 70.175781 24.710938 75.425781 28.980469 79.621094 C 33.273438 83.84375 38.46875 85.898438 44.863281 85.898438 C 53.957031 85.898438 61.691406 80.800781 65.050781 72.601562 L 65.234375 72.15625 L 56.550781 69.199219 L 56.386719 69.589844 C 54.449219 74.324219 50.140625 77.152344 44.863281 77.152344 C 41.265625 77.152344 38.230469 75.894531 35.824219 73.410156 C 33.390625 70.898438 32.160156 67.738281 32.160156 64.023438 C 32.160156 60.28125 33.363281 57.183594 35.824219 54.554688 C 38.222656 52.058594 41.265625 50.796875 44.863281 50.796875 Z M 44.863281 50.796875 "/>
<path style=" stroke:none;fill-rule:nonzero;fill:rgb(3.529412%,16.078432%,24.705882%);fill-opacity:1;" d="M 99.171875 42.863281 L 86.8125 74.226562 L 74.375 42.863281 L 64.199219 42.863281 L 81.644531 85.671875 L 69.234375 115.863281 L 78.128906 117.640625 L 108.785156 42.863281 Z M 99.171875 42.863281 "/>
<path style=" stroke:none;fill-rule:nonzero;fill:url(#linear3);" d="M 120.746094 34.523438 C 125.246094 43.292969 128 53.59375 128 64.136719 C 128 88.734375 114.164062 110.09375 93.875 120.808594 L 89.488281 113.03125 C 107.085938 103.855469 119.101562 85.402344 119.101562 64.136719 C 119.101562 54.90625 116.847656 46.289062 112.847656 38.648438 C 112.847656 38.648438 120.746094 34.523438 120.746094 34.523438 Z M 120.746094 34.523438 "/>
</g>
</svg>
