<?xml version="1.0" encoding="UTF-8"?>
<svg xmlns="http://www.w3.org/2000/svg" xmlns:xlink="http://www.w3.org/1999/xlink" width="128px" height="128px" viewBox="0 0 128 128" version="1.1">
<g id="surface1">
<path style=" stroke:none;fill-rule:nonzero;fill:rgb(0%,0%,0%);fill-opacity:1;" d="M 64 0 C 99.347656 0 128 28.652344 128 64 C 128 99.347656 99.347656 128 64 128 C 28.652344 128 0 99.347656 0 64 C 0 28.652344 28.652344 0 64 0 Z M 64 0 "/>
<path style=" stroke:none;fill-rule:nonzero;fill:rgb(100%,100%,100%);fill-opacity:1;" d="M 61.5 36.226562 C 70.449219 36.226562 78.125 38.699219 84.175781 43.425781 C 89.265625 47.40625 93.015625 52.875 94.984375 59.0625 L 95.050781 59.273438 L 95.101562 59.425781 L 95.148438 59.601562 L 95.25 59.925781 L 95.398438 60.523438 L 95.800781 61.925781 L 96.226562 63.523438 L 98.101562 70.375 L 99.949219 77.273438 L 102.050781 85.125 L 105.425781 97.75 L 106.699219 102.5 L 106.425781 102.800781 C 97.613281 112.429688 85.570312 119.042969 72.011719 120.945312 L 71.601562 121 L 71.476562 120.175781 L 71.25 118.523438 L 71.050781 117.324219 L 70.824219 115.75 L 70.523438 113.824219 L 70.398438 113.074219 L 70.125 111.25 L 69.949219 110.175781 L 69.726562 108.773438 L 69.5 107.425781 L 69.273438 106.125 L 69.050781 104.851562 L 68.851562 103.601562 L 68.625 102.398438 L 68.425781 101.25 L 68.273438 100.398438 L 68.101562 99.574219 L 67.800781 98 L 67.648438 97.25 L 67.476562 96.324219 L 67.324219 95.675781 L 67.199219 95.050781 L 67.074219 94.449219 L 67 94.050781 L 66.824219 93.300781 L 66.574219 92.199219 L 66.476562 91.851562 L 66.351562 91.351562 L 66.25 90.875 L 66.125 90.398438 L 66 89.949219 L 65.925781 89.675781 L 65.800781 89.25 L 65.699219 88.851562 L 65.625 88.574219 L 65.523438 88.324219 L 65.449219 88.101562 L 65.351562 87.75 L 65.273438 87.5 L 65.226562 87.351562 C 65.117188 87.03125 65 86.71875 64.871094 86.40625 L 64.773438 86.175781 L 64.699219 86.023438 L 65.273438 84.523438 L 63 84.601562 L 62.375 84.625 C 41.726562 85.050781 28.398438 76.273438 28.398438 62.523438 C 28.398438 47.949219 42.898438 36.226562 61.5 36.226562 Z M 41.351562 105.074219 C 41.816406 103.476562 43.472656 102.53125 45.074219 102.929688 L 45.148438 102.949219 C 46.773438 103.367188 47.746094 105 47.390625 106.625 L 47.375 106.699219 L 47.351562 106.773438 L 44.324219 118.050781 L 43.898438 117.875 C 42.210938 117.246094 40.550781 116.535156 38.929688 115.75 L 38.523438 115.550781 L 41.324219 105.148438 Z M 58.75 97.449219 C 59.226562 95.824219 60.925781 94.875 62.574219 95.324219 C 63.386719 95.546875 64.074219 96.085938 64.480469 96.820312 L 64.523438 96.898438 L 64.625 97.351562 L 64.773438 98.074219 L 64.875 98.601562 L 64.851562 98.726562 L 64.773438 99.074219 L 64.773438 99.148438 L 60.523438 114.898438 L 60.5 114.976562 C 59.980469 116.550781 58.320312 117.445312 56.71875 117.011719 C 55.144531 116.585938 54.164062 115.023438 54.460938 113.425781 L 54.476562 113.351562 L 54.476562 113.273438 L 58.726562 97.523438 Z M 32.949219 79.101562 C 34.460938 80.421875 36.203125 81.625 38.109375 82.648438 L 38.351562 82.773438 L 34.5 97.074219 L 34.476562 97.148438 C 33.976562 98.761719 32.289062 99.6875 30.664062 99.242188 C 29.0625 98.804688 28.085938 97.191406 28.433594 95.574219 L 28.449219 95.5 L 28.476562 95.425781 L 32.726562 79.675781 L 32.75 79.574219 Z M 19 63.101562 C 19.476562 61.5 21.175781 60.550781 22.824219 60.976562 C 24.425781 61.417969 25.394531 63.046875 25.042969 64.675781 L 25.023438 64.75 L 25.023438 64.824219 L 20.773438 80.574219 L 20.75 80.648438 C 20.253906 82.261719 18.566406 83.1875 16.9375 82.742188 C 15.335938 82.304688 14.363281 80.691406 14.707031 79.074219 L 14.726562 79 L 14.726562 78.925781 L 18.976562 63.175781 Z M 114.300781 59.523438 C 114.773438 57.925781 116.476562 56.976562 118.101562 57.398438 C 119.726562 57.84375 120.695312 59.472656 120.34375 61.074219 L 120.324219 61.148438 L 120.324219 61.25 L 116.050781 77 L 116.050781 77.074219 C 115.59375 78.746094 113.871094 79.730469 112.199219 79.273438 C 110.554688 78.824219 109.574219 77.148438 109.980469 75.5 L 110 75.425781 L 110.023438 75.351562 L 114.273438 59.601562 Z M 13.550781 36.375 L 13.660156 36.378906 C 13.875 36.386719 14.089844 36.421875 14.300781 36.476562 C 15.925781 36.917969 16.894531 38.546875 16.542969 40.175781 L 16.523438 40.25 L 16.5 40.324219 L 12.25 56.074219 L 12.226562 56.148438 C 11.75 57.75 10.050781 58.699219 8.425781 58.273438 C 7.824219 58.121094 7.285156 57.789062 6.875 57.324219 C 7.710938 50.085938 9.921875 43.074219 13.390625 36.664062 Z M 103.523438 38.601562 C 104.023438 37 105.699219 36.050781 107.351562 36.476562 C 108.949219 36.917969 109.945312 38.546875 109.59375 40.175781 L 109.574219 40.25 L 109.550781 40.324219 L 105.300781 56.074219 L 105.273438 56.148438 C 104.777344 57.761719 103.089844 58.6875 101.464844 58.242188 C 99.859375 57.804688 98.886719 56.191406 99.234375 54.574219 L 99.25 54.5 L 99.273438 54.425781 L 103.523438 38.675781 Z M 28.25 23.625 C 28.726562 22.023438 30.425781 21.074219 32.050781 21.5 C 33.675781 21.941406 34.644531 23.574219 34.292969 25.175781 L 34.273438 25.25 L 34.25 25.351562 L 30 41.101562 L 29.976562 41.175781 C 29.476562 42.789062 27.789062 43.714844 26.164062 43.269531 C 24.5625 42.828125 23.585938 41.214844 23.933594 39.601562 L 23.949219 39.523438 L 23.976562 39.449219 L 28.226562 23.699219 Z M 82.851562 26.601562 C 83.324219 25 85.023438 24.050781 86.675781 24.476562 C 88.273438 24.917969 89.246094 26.546875 88.890625 28.175781 L 88.875 28.25 L 88.875 28.324219 L 85.523438 40.699219 L 85.25 40.476562 C 83.679688 39.324219 82.019531 38.304688 80.28125 37.429688 L 79.976562 37.273438 L 82.824219 26.675781 Z M 58.875 6.726562 C 58.964844 7.15625 58.964844 7.597656 58.871094 8.027344 L 58.851562 8.125 L 58.824219 8.199219 L 54.574219 23.949219 L 54.550781 24.023438 C 54.03125 25.597656 52.371094 26.492188 50.769531 26.0625 C 49.191406 25.636719 48.214844 24.074219 48.511719 22.476562 L 48.523438 22.398438 L 48.550781 22.324219 L 52.5 7.648438 L 52.925781 7.574219 C 54.890625 7.1875 56.878906 6.90625 58.875 6.726562 Z M 97.976562 17.601562 L 98.351562 17.875 C 99.953125 19.070312 101.492188 20.351562 102.960938 21.707031 L 103.273438 22 L 103.175781 22.324219 L 103.148438 22.398438 C 102.628906 23.972656 100.96875 24.867188 99.367188 24.4375 C 97.792969 24.011719 96.8125 22.449219 97.109375 20.851562 L 97.125 20.773438 L 97.148438 20.699219 Z M 73.25 7.25 L 73.699219 7.324219 C 75.457031 7.621094 77.199219 8 78.921875 8.457031 L 79.351562 8.574219 L 77.773438 14.449219 L 77.75 14.523438 C 77.230469 16.097656 75.570312 16.992188 73.96875 16.5625 C 72.394531 16.136719 71.414062 14.574219 71.710938 12.976562 L 71.726562 12.898438 L 71.75 12.824219 Z M 73.25 7.25 "/>
<path style=" stroke:none;fill-rule:nonzero;fill:rgb(0%,0%,0%);fill-opacity:1;" d="M 65.5 46.75 C 67.710938 46.75 69.5 48.539062 69.5 50.75 C 69.5 52.960938 67.710938 54.75 65.5 54.75 C 63.289062 54.75 61.5 52.960938 61.5 50.75 C 61.5 48.539062 63.289062 46.75 65.5 46.75 Z M 65.5 46.75 "/>
</g>
</svg>
