<?xml version="1.0" encoding="UTF-8"?>
<svg xmlns="http://www.w3.org/2000/svg" xmlns:xlink="http://www.w3.org/1999/xlink" width="128px" height="144px" viewBox="0 0 128 144" version="1.1">
<g id="surface1">
<path style=" stroke:none;fill-rule:evenodd;fill:rgb(89.803922%,20.784314%,67.058825%);fill-opacity:1;" d="M 76.289062 16.480469 L 105.859375 33.554688 C 106.695312 32.675781 107.667969 31.894531 108.769531 31.253906 C 114.902344 27.730469 122.726562 29.820312 126.289062 35.957031 C 129.8125 42.089844 127.722656 49.910156 121.585938 53.472656 C 120.492188 54.105469 119.34375 54.554688 118.171875 54.835938 L 118.171875 88.996094 C 119.328125 89.277344 120.46875 89.726562 121.550781 90.347656 C 127.722656 93.910156 129.8125 101.734375 126.25 107.867188 C 122.726562 114 114.867188 116.09375 108.734375 112.566406 C 107.511719 111.867188 106.449219 110.992188 105.5625 109.992188 L 76.171875 126.964844 C 76.589844 128.234375 76.816406 129.59375 76.816406 131.003906 C 76.816406 138.054688 71.089844 143.820312 64 143.820312 C 56.910156 143.820312 51.183594 138.09375 51.183594 131.003906 C 51.183594 129.746094 51.363281 128.527344 51.699219 127.378906 L 22.136719 110.308594 C 21.3125 111.171875 20.351562 111.9375 19.265625 112.566406 C 13.097656 116.09375 5.273438 114 1.75 107.867188 C -1.777344 101.734375 0.316406 93.910156 6.449219 90.347656 C 7.535156 89.722656 8.671875 89.277344 9.828125 88.996094 L 9.828125 54.835938 C 8.65625 54.554688 7.507812 54.105469 6.414062 53.472656 C 0.277344 49.949219 -1.8125 42.089844 1.710938 35.957031 C 5.238281 29.820312 13.097656 27.730469 19.230469 31.253906 C 20.328125 31.890625 21.296875 32.664062 22.125 33.542969 L 51.707031 16.460938 C 51.367188 15.308594 51.183594 14.085938 51.183594 12.816406 C 51.183594 5.730469 56.910156 0 64 0 C 71.089844 0 76.816406 5.730469 76.816406 12.816406 C 76.816406 14.089844 76.632812 15.320312 76.289062 16.480469 Z M 73.207031 21.742188 L 102.851562 38.859375 C 101.933594 42.074219 102.269531 45.644531 104.070312 48.773438 C 105.875 51.910156 108.8125 53.992188 112.074219 54.804688 L 112.074219 89.007812 C 111.910156 89.050781 111.742188 89.09375 111.578125 89.140625 L 72.863281 22.085938 C 72.980469 21.972656 73.09375 21.859375 73.207031 21.742188 Z M 55.144531 22.09375 L 16.429688 89.148438 C 16.261719 89.097656 16.09375 89.054688 15.925781 89.011719 L 15.925781 54.804688 C 19.1875 53.992188 22.125 51.910156 23.929688 48.773438 C 25.734375 45.636719 26.066406 42.0625 25.144531 38.839844 L 54.78125 21.726562 C 54.898438 21.851562 55.019531 21.972656 55.144531 22.09375 Z M 67.582031 25.128906 L 106.289062 92.171875 C 105.421875 92.996094 104.660156 93.957031 104.03125 95.046875 C 103.410156 96.132812 102.960938 97.269531 102.679688 98.425781 L 25.320312 98.425781 C 25.039062 97.269531 24.589844 96.132812 23.96875 95.046875 C 23.339844 93.964844 22.578125 93.007812 21.714844 92.1875 L 60.429688 25.132812 C 61.5625 25.460938 62.761719 25.636719 64 25.636719 C 65.242188 25.636719 66.445312 25.457031 67.582031 25.128906 Z M 73.480469 122.367188 L 102.929688 105.363281 C 102.839844 105.085938 102.761719 104.808594 102.691406 104.523438 L 25.304688 104.523438 C 25.261719 104.691406 25.21875 104.855469 25.171875 105.019531 L 54.765625 122.109375 C 57.097656 119.6875 60.371094 118.1875 64 118.1875 C 67.757812 118.1875 71.136719 119.796875 73.480469 122.367188 Z M 73.480469 122.367188 "/>
</g>
</svg>
