<?xml version="1.0" encoding="UTF-8"?>
<svg xmlns="http://www.w3.org/2000/svg" xmlns:xlink="http://www.w3.org/1999/xlink" width="128px" height="30px" viewBox="0 0 130 30" version="1.1">
<g id="surface1">
<path style=" stroke:none;fill-rule:nonzero;fill:rgb(6.666667%,6.666667%,6.666667%);fill-opacity:1;" d="M 61.234375 0.320312 L 61.167969 8.394531 L 61.234375 8.363281 C 68.9375 6.445312 70.589844 11.683594 70.589844 14.21875 L 70.589844 24.308594 L 65.964844 24.308594 L 65.964844 14.507812 C 65.964844 13.011719 65.234375 10.875 61.234375 12.113281 L 61.234375 24.308594 L 56.707031 24.308594 L 56.707031 1.261719 Z M 110.953125 14.789062 L 110.953125 24.300781 L 106.652344 24.300781 L 106.652344 14.671875 C 106.585938 13.027344 105.179688 10.84375 102.183594 12.253906 L 102.183594 24.300781 L 97.472656 24.300781 L 97.46875 14.691406 C 97.449219 13.304688 96.949219 11.304688 92.996094 11.644531 L 92.996094 24.300781 L 88.589844 24.300781 L 88.589844 9.097656 L 88.71875 9.019531 C 89.78125 8.363281 95.402344 6.625 99.914062 9.359375 C 107.488281 5.582031 110.953125 9.652344 110.953125 14.789062 Z M 79.082031 3.117188 L 79.082031 8.085938 L 84.886719 8.085938 L 84.886719 11.8125 L 79.296875 11.8125 L 79.296875 17.953125 C 79.296875 18.800781 79.328125 19.417969 79.546875 19.78125 C 80.902344 20.953125 82.683594 21.105469 84.886719 20.234375 L 85.261719 23.914062 C 80.730469 25.207031 77.628906 24.75 75.953125 22.546875 C 75.054688 21.539062 74.609375 20.152344 74.609375 18.398438 L 74.609375 4.089844 Z M 79.082031 3.117188 "/>
<path style=" stroke:none;fill-rule:nonzero;fill:rgb(25.098041%,39.607844%,77.254903%);fill-opacity:1;" d="M 113.457031 8.097656 L 118.367188 8.097656 L 121.683594 13.230469 L 124.742188 8.097656 L 129.578125 8.097656 L 124.121094 15.925781 L 130 24.300781 L 124.917969 24.300781 L 121.519531 18.667969 L 118.121094 24.300781 L 113.195312 24.300781 L 119.121094 15.925781 Z M 113.457031 8.097656 "/>
<path style=" stroke:none;fill-rule:nonzero;fill:rgb(6.666667%,6.666667%,6.666667%);fill-opacity:1;" d="M 32.253906 7.613281 L 45.519531 13.210938 L 45.519531 17.105469 L 32.253906 22.625 L 31.203125 18.796875 L 41.011719 15.113281 L 31.203125 11.410156 Z M 32.253906 7.613281 "/>
<path style=" stroke:none;fill-rule:nonzero;fill:rgb(6.666667%,6.666667%,6.666667%);fill-opacity:1;" d="M 13.265625 7.609375 L 0 13.210938 L 0 17.105469 L 13.265625 22.625 L 14.316406 18.796875 L 4.507812 15.113281 L 14.316406 11.410156 Z M 13.265625 7.609375 "/>
<path style=" stroke:none;fill-rule:nonzero;fill:rgb(25.098041%,39.607844%,77.254903%);fill-opacity:1;" d="M 25.664062 0 L 30.230469 0 L 20.089844 29.753906 L 15.292969 29.753906 Z M 25.664062 0 "/>
</g>
</svg>
