<?xml version="1.0" encoding="UTF-8"?>
<svg xmlns="http://www.w3.org/2000/svg" xmlns:xlink="http://www.w3.org/1999/xlink" width="px" height="0px" viewBox="0 0 128 173" version="1.1">
<g id="surface1">
<path style=" stroke:none;fill-rule:nonzero;fill:rgb(32.549021%,50.980395%,63.137257%);fill-opacity:1;" d="M 41.277344 133.734375 C 41.277344 133.734375 34.679688 137.574219 45.972656 138.871094 C 59.65625 140.433594 66.652344 140.210938 81.730469 137.355469 C 81.730469 137.355469 85.695312 139.839844 91.234375 141.996094 C 57.429688 156.484375 14.722656 141.15625 41.277344 133.734375 "/>
<path style=" stroke:none;fill-rule:nonzero;fill:rgb(32.549021%,50.980395%,63.137257%);fill-opacity:1;" d="M 37.144531 114.828125 C 37.144531 114.828125 29.746094 120.308594 41.046875 121.476562 C 55.667969 122.984375 67.210938 123.109375 87.1875 119.261719 C 87.1875 119.261719 89.949219 122.0625 94.292969 123.59375 C 53.421875 135.546875 7.894531 124.539062 37.144531 114.828125 "/>
<path style=" stroke:none;fill-rule:nonzero;fill:rgb(90.588236%,43.529412%,0%);fill-opacity:1;" d="M 71.972656 82.757812 C 80.300781 92.347656 69.78125 100.976562 69.78125 100.976562 C 69.78125 100.976562 90.933594 90.058594 81.21875 76.386719 C 72.148438 63.636719 65.191406 57.300781 102.851562 35.457031 C 102.851562 35.457031 43.734375 50.222656 71.972656 82.757812 "/>
<path style=" stroke:none;fill-rule:nonzero;fill:rgb(32.549021%,50.980395%,63.137257%);fill-opacity:1;" d="M 116.683594 147.722656 C 116.683594 147.722656 121.566406 151.746094 111.304688 154.859375 C 91.789062 160.769531 30.085938 162.554688 12.945312 155.09375 C 6.785156 152.414062 18.339844 148.691406 21.972656 147.914062 C 25.765625 147.089844 27.929688 147.242188 27.929688 147.242188 C 21.078125 142.417969 -16.359375 156.722656 8.914062 160.820312 C 77.839844 171.996094 134.5625 155.785156 116.683594 147.722656 "/>
<path style=" stroke:none;fill-rule:nonzero;fill:rgb(32.549021%,50.980395%,63.137257%);fill-opacity:1;" d="M 44.449219 95.238281 C 44.449219 95.238281 13.0625 102.695312 33.335938 105.402344 C 41.894531 106.546875 58.957031 106.289062 74.851562 104.957031 C 87.839844 103.859375 100.882812 101.53125 100.882812 101.53125 C 100.882812 101.53125 96.300781 103.492188 92.988281 105.753906 C 61.117188 114.136719 -0.453125 110.238281 17.273438 101.664062 C 32.261719 94.417969 44.449219 95.238281 44.449219 95.238281 "/>
<path style=" stroke:none;fill-rule:nonzero;fill:rgb(32.549021%,50.980395%,63.137257%);fill-opacity:1;" d="M 100.753906 126.710938 C 133.152344 109.875 118.171875 93.695312 107.714844 95.875 C 105.152344 96.410156 104.011719 96.871094 104.011719 96.871094 C 104.011719 96.871094 104.960938 95.382812 106.78125 94.734375 C 127.464844 87.464844 143.371094 116.183594 100.101562 127.558594 C 100.101562 127.558594 100.601562 127.113281 100.753906 126.710938 "/>
<path style=" stroke:none;fill-rule:nonzero;fill:rgb(90.588236%,43.529412%,0%);fill-opacity:1;" d="M 81.21875 0.1875 C 81.21875 0.1875 99.164062 18.136719 64.199219 45.734375 C 36.164062 67.875 57.808594 80.5 64.1875 94.925781 C 47.824219 80.160156 35.816406 67.160156 43.871094 55.0625 C 55.699219 37.308594 88.460938 28.695312 81.21875 0.1875 "/>
<path style=" stroke:none;fill-rule:nonzero;fill:rgb(32.549021%,50.980395%,63.137257%);fill-opacity:1;" d="M 47.632812 172.332031 C 78.734375 174.324219 126.488281 171.226562 127.621094 156.511719 C 127.621094 156.511719 125.445312 162.089844 101.917969 166.519531 C 75.375 171.515625 42.636719 170.933594 23.21875 167.730469 C 23.21875 167.730469 27.195312 171.023438 47.632812 172.332031 "/>
</g>
</svg>
