<?xml version="1.0" encoding="UTF-8"?>
<svg xmlns="http://www.w3.org/2000/svg" xmlns:xlink="http://www.w3.org/1999/xlink" width="128px" height="29px" viewBox="0 0 128 29" version="1.1">
<g id="surface1">
<path style=" stroke:none;fill-rule:evenodd;fill:rgb(10.196079%,9.803922%,9.411765%);fill-opacity:1;" d="M 122.429688 2.160156 L 127.785156 2.191406 C 127.785156 2.191406 117.828125 15.683594 117.015625 16.78125 C 116.75 17.136719 116.351562 17.523438 116.148438 17.996094 C 115.632812 19.195312 115.105469 21.820312 115.105469 21.820312 L 110.203125 21.84375 C 110.203125 21.84375 110.96875 19.105469 110.9375 17.648438 C 110.910156 16.375 110.257812 15.105469 109.894531 13.828125 C 109.527344 12.535156 109.023438 10.007812 109.023438 10.007812 L 114.0625 10.007812 L 114.757812 12.785156 L 122.429688 2.160156 "/>
<path style=" stroke:none;fill-rule:evenodd;fill:rgb(10.196079%,9.803922%,9.411765%);fill-opacity:1;" d="M 112.289062 5.007812 C 113.277344 5.601562 113.882812 8.890625 113.882812 8.890625 C 113.882812 8.890625 108.714844 8.964844 105.898438 8.964844 L 103.46875 8.964844 L 100.515625 21.820312 L 96 21.820312 C 96 21.820312 98.808594 7.851562 99.472656 5.316406 C 99.6875 4.496094 100.945312 4.636719 103.070312 4.636719 L 106.460938 4.636719 C 108.652344 4.636719 111.210938 4.359375 112.289062 5.007812 "/>
<path style=" stroke:none;fill-rule:evenodd;fill:rgb(10.196079%,9.803922%,9.411765%);fill-opacity:1;" d="M 91.265625 11.265625 C 91.265625 11.265625 91.40625 10.441406 90.789062 9.484375 C 90.257812 8.671875 89.769531 8.480469 88.382812 8.4375 C 84.457031 8.316406 84.535156 11.222656 84.535156 11.222656 Z M 95.519531 7.9375 C 96.09375 10.011719 95 14.886719 95 14.886719 C 95 14.886719 89.277344 14.789062 86.140625 14.886719 C 85.167969 14.914062 84 14.777344 83.710938 15.230469 C 83.300781 15.867188 83.859375 16.847656 84.332031 17.257812 C 84.875 17.734375 85.933594 17.789062 86.316406 17.835938 C 88.859375 18.160156 94.183594 17.921875 94.183594 17.921875 L 93.261719 22.007812 C 93.261719 22.007812 85.738281 22.382812 81.972656 21.484375 C 81.230469 21.308594 80.53125 20.949219 80.0625 20.441406 C 79.933594 20.304688 79.820312 20.113281 79.699219 19.953125 C 79.601562 19.820312 79.320312 19.390625 79.191406 19.054688 C 78.332031 16.761719 79.292969 12.375 80.234375 10.019531 C 80.34375 9.75 80.480469 9.402344 80.625 9.109375 C 80.808594 8.742188 80.960938 8.328125 81.105469 8.109375 C 81.199219 7.960938 81.320312 7.863281 81.421875 7.71875 C 81.539062 7.550781 81.671875 7.386719 81.796875 7.242188 C 82.144531 6.839844 82.539062 6.554688 83.015625 6.199219 C 84.582031 5.027344 87.421875 4.113281 90.832031 4.464844 C 92.113281 4.59375 94.054688 5.054688 95 6.375 C 95.253906 6.726562 95.378906 7.425781 95.519531 7.9375 Z M 95.519531 7.9375 "/>
<path style=" stroke:none;fill-rule:evenodd;fill:rgb(10.196079%,9.803922%,9.411765%);fill-opacity:1;" d="M 74.808594 4.621094 L 79.1875 4.597656 C 79.1875 4.597656 76.746094 16.171875 75.503906 21.820312 L 70.464844 21.820312 C 66.945312 21.820312 63.808594 22.253906 62.476562 19.734375 C 61.179688 17.289062 62.414062 13.261719 62.996094 10.527344 C 63.40625 8.59375 64.269531 4.636719 64.269531 4.636719 L 68.804688 4.597656 C 68.804688 4.597656 67.523438 10.753906 66.992188 13.828125 C 66.800781 14.929688 66.40625 15.96875 66.816406 16.78125 C 67.207031 17.554688 67.753906 17.613281 69.421875 17.648438 C 69.949219 17.664062 71.679688 17.648438 71.679688 17.648438 L 74.808594 4.621094 "/>
<path style=" stroke:none;fill-rule:evenodd;fill:rgb(10.196079%,9.803922%,9.411765%);fill-opacity:1;" d="M 54.3125 12.960938 C 54.769531 11.332031 55.4375 9.5625 55.351562 8.097656 C 55.261719 6.527344 53.945312 5.097656 53.09375 4.796875 C 50.535156 3.894531 48.140625 5.15625 47.191406 6.1875 C 45.957031 7.519531 45.542969 9.078125 45.105469 11.222656 C 44.78125 12.816406 44.515625 14.496094 45.105469 15.738281 C 46.152344 17.933594 49.410156 17.457031 52.921875 17.476562 C 53.441406 16.078125 53.875 14.511719 54.3125 12.960938 Z M 60.390625 6.535156 C 60.890625 10.171875 58.972656 14.183594 57.648438 17.675781 C 58.996094 17.796875 60.179688 17.65625 60.265625 17.757812 C 60.351562 17.886719 59.359375 21.925781 59.015625 21.933594 C 57.945312 21.964844 54.398438 21.992188 52.921875 21.992188 C 48.097656 21.992188 43.585938 22.308594 41.285156 19.90625 C 40.347656 18.933594 39.703125 17.261719 39.546875 16.085938 C 39.285156 14.125 39.613281 11.964844 40.066406 10.179688 C 40.480469 8.574219 41.007812 7.054688 41.804688 5.664062 C 43.832031 2.125 47.359375 -0.5 53.269531 0.105469 C 54.414062 0.226562 56.0625 0.726562 57.089844 1.324219 C 57.160156 1.363281 57.410156 1.5625 57.46875 1.597656 C 58.855469 2.480469 60.121094 4.589844 60.390625 6.535156 Z M 60.390625 6.535156 "/>
<path style=" stroke:none;fill-rule:evenodd;fill:rgb(10.196079%,9.803922%,9.411765%);fill-opacity:1;" d="M 39.046875 4.644531 C 38.757812 5.972656 38.464844 7.476562 38.15625 8.792969 L 33.292969 8.792969 C 33.671875 7.335938 33.960938 5.890625 34.335938 4.621094 C 35.890625 4.621094 37.339844 4.644531 39.046875 4.644531 "/>
<path style=" stroke:none;fill-rule:evenodd;fill:rgb(10.196079%,9.803922%,9.411765%);fill-opacity:1;" d="M 33.121094 10.007812 L 37.808594 10.007812 C 37.195312 13.402344 35.984375 18.875 35.03125 22.6875 C 34.433594 25.070312 34.039062 26.8125 32.425781 28.070312 C 32.28125 28.183594 32.199219 28.132812 32.078125 28.246094 C 31.78125 28.527344 30.40625 28.855469 29.644531 28.941406 C 28.410156 29.074219 27.011719 28.957031 25.492188 28.925781 C 25.890625 27.472656 26.339844 25.726562 26.695312 24.425781 C 30.398438 24.871094 30.492188 21.371094 31.210938 17.996094 C 31.625 16.046875 32.882812 10.789062 33.121094 10.007812 "/>
<path style=" stroke:none;fill-rule:evenodd;fill:rgb(12.941177%,37.64706%,60.784316%);fill-opacity:1;" d="M 22.175781 18.867188 L 22.078125 19.125 C 20.363281 22.460938 17.328125 24.507812 13 24.597656 C 10.976562 24.640625 9.050781 24.121094 7.789062 23.554688 C 5.070312 22.335938 2.785156 20.070312 1.535156 17.648438 C -0.253906 14.179688 -0.578125 9.355469 3.148438 5.75 C 3.203125 5.75 2.695312 6.535156 2.753906 6.535156 L 2.648438 6.867188 C -0.0351562 15.269531 8.234375 22.46875 16.269531 21.644531 C 18.203125 21.445312 20.667969 20.390625 22.175781 18.867188 "/>
<path style=" stroke:none;fill-rule:evenodd;fill:rgb(12.941177%,37.64706%,60.784316%);fill-opacity:1;" d="M 17.3125 15.390625 C 19.335938 15.40625 21.449219 14.460938 22.699219 13.132812 C 21.605469 15.910156 18.4375 17.695312 14.1875 17.128906 C 10.628906 16.652344 7.242188 13.074219 6.890625 9.484375 C 6.636719 6.875 7.546875 5.316406 9.046875 3.429688 C 8.523438 4.417969 8.328125 5.179688 8.28125 5.664062 C 7.710938 11.3125 12.792969 15.363281 17.3125 15.390625 "/>
<path style=" stroke:none;fill-rule:evenodd;fill:rgb(12.941177%,37.64706%,60.784316%);fill-opacity:1;" d="M 22.496094 8.378906 C 22.179688 9.097656 20.371094 10.460938 19.570312 10.632812 C 16.40625 11.304688 14.378906 9.804688 13.320312 8.097656 C 13.160156 7.839844 12.867188 7.144531 12.816406 6.96875 C 12.40625 5.566406 12.59375 3.449219 13.824219 2.355469 C 13.453125 3.394531 13.398438 4.605469 13.59375 5.394531 C 13.710938 5.871094 14.070312 6.699219 14.429688 7.222656 C 15.085938 8.175781 15.5 8.40625 16.339844 8.910156 C 16.71875 9.140625 17.125 9.320312 17.300781 9.371094 C 18.097656 9.605469 19.78125 10.222656 22.496094 8.378906 "/>
</g>
</svg>
