<?xml version="1.0" encoding="UTF-8"?>
<svg xmlns="http://www.w3.org/2000/svg" xmlns:xlink="http://www.w3.org/1999/xlink" width="px" height="0px" viewBox="0 0 256 175" version="1.1">
<g id="surface1">
<path style=" stroke:none;fill-rule:nonzero;fill:rgb(0%,45.882353%,56.078434%);fill-opacity:1;" d="M 76.15625 115.476562 L 83.933594 140.792969 C 85.683594 146.542969 86.410156 150.554688 86.121094 152.84375 C 90.375 141.414062 93.347656 128.957031 95.039062 115.476562 L 104.394531 115.476562 C 100.371094 137.425781 95.066406 153.371094 88.480469 163.320312 C 83.351562 170.988281 77.730469 174.820312 71.609375 174.820312 C 69.976562 174.820312 67.964844 174.324219 65.578125 173.34375 L 65.578125 168.054688 C 66.742188 168.222656 68.113281 168.316406 69.6875 168.316406 C 72.542969 168.316406 74.84375 167.523438 76.59375 165.9375 C 78.691406 164.007812 79.738281 161.839844 79.738281 159.433594 C 79.738281 157.792969 78.921875 154.425781 77.292969 149.328125 L 66.453125 115.476562 Z M 16.613281 99.917969 L 30.863281 143.519531 L 30.949219 143.519531 L 45.289062 99.917969 L 57 99.917969 C 59.566406 121.542969 61.082031 141.328125 61.546875 159.261719 L 51.671875 159.261719 C 51.324219 142.496094 50.359375 126.730469 48.785156 111.964844 L 48.699219 111.964844 L 33.660156 159.261719 L 26.140625 159.261719 L 11.191406 111.964844 L 11.105469 111.964844 C 9.996094 126.148438 9.296875 141.910156 9.007812 159.261719 L 0 159.261719 C 0.582031 138.160156 2.039062 118.382812 4.371094 99.917969 Z M 16.613281 99.917969 "/>
<path style=" stroke:none;fill-rule:nonzero;fill:rgb(94.901961%,56.862748%,6.666667%);fill-opacity:1;" d="M 176.25 99.039062 C 191.578125 99.039062 199.242188 108.859375 199.242188 128.492188 C 199.242188 139.160156 196.9375 147.21875 192.332031 152.664062 C 191.5 153.65625 190.582031 154.515625 189.617188 155.3125 L 200.464844 160.691406 L 200.453125 160.691406 L 196.601562 167.363281 L 182.476562 159.09375 C 180.136719 159.789062 177.558594 160.136719 174.75 160.136719 C 167.226562 160.136719 161.601562 157.9375 157.886719 153.542969 C 153.804688 148.683594 151.765625 141.03125 151.765625 130.601562 C 151.765625 119.992188 154.066406 111.964844 158.675781 106.511719 C 162.871094 101.527344 168.730469 99.039062 176.25 99.039062 Z M 129.308594 99.125 C 134.789062 99.125 139.769531 100.59375 144.257812 103.523438 L 141.976562 108.617188 C 138.136719 106.980469 134.351562 106.160156 130.617188 106.160156 C 127.589844 106.160156 125.257812 106.890625 123.628906 108.359375 C 121.992188 109.820312 120.980469 111.695312 120.980469 113.984375 C 120.980469 117.496094 123.476562 120.546875 128.089844 123.121094 C 129.328125 123.796875 130.945312 124.699219 132.605469 125.632812 L 132.949219 125.828125 C 133.003906 125.859375 133.0625 125.894531 133.121094 125.925781 L 133.464844 126.121094 C 133.523438 126.152344 133.578125 126.183594 133.636719 126.21875 L 133.980469 126.410156 C 137.472656 128.386719 140.753906 130.269531 140.753906 130.269531 C 145.367188 133.550781 147.664062 137.050781 147.664062 142.8125 C 147.664062 147.84375 145.824219 151.976562 142.160156 155.207031 C 138.488281 158.425781 133.5625 160.039062 127.390625 160.039062 C 121.617188 160.039062 116.023438 158.183594 110.601562 154.5 L 113.136719 149.402344 C 117.800781 151.746094 122.023438 152.917969 125.8125 152.917969 C 129.363281 152.917969 132.148438 152.121094 134.160156 150.550781 C 136.167969 148.96875 137.371094 146.757812 137.371094 143.960938 C 137.371094 140.4375 134.925781 137.425781 130.445312 134.898438 C 129.28125 134.253906 127.789062 133.417969 126.246094 132.542969 L 125.902344 132.347656 C 125.273438 131.988281 124.636719 131.628906 124.015625 131.273438 L 123.675781 131.082031 C 120.648438 129.351562 118.03125 127.84375 118.03125 127.84375 C 113.550781 124.558594 111.300781 121.027344 111.300781 115.214844 C 111.300781 110.410156 112.976562 106.523438 116.324219 103.566406 C 119.679688 100.605469 124.007812 99.125 129.308594 99.125 Z M 217.257812 99.917969 L 217.257812 151.960938 L 235.875 151.960938 L 235.875 159.261719 L 207.8125 159.261719 L 207.8125 99.917969 Z M 246.222656 151.984375 L 246.222656 153.21875 L 244.175781 153.21875 L 244.175781 159.253906 L 242.609375 159.253906 L 242.609375 153.21875 L 240.484375 153.21875 L 240.484375 151.984375 Z M 250 151.984375 L 251.96875 156.941406 L 253.773438 151.984375 L 255.992188 151.984375 L 255.992188 159.253906 L 254.515625 159.253906 L 254.515625 153.722656 L 252.460938 159.253906 L 251.398438 159.253906 L 249.339844 153.722656 L 249.261719 153.722656 L 249.261719 159.253906 L 247.863281 159.253906 L 247.863281 151.984375 Z M 175.285156 106.335938 C 166.25 106.335938 161.734375 113.8125 161.734375 128.753906 C 161.734375 137.3125 162.929688 143.519531 165.320312 147.390625 C 167.535156 150.96875 171 152.757812 175.722656 152.757812 C 184.757812 152.757812 189.273438 145.222656 189.273438 130.160156 C 189.273438 121.71875 188.078125 115.566406 185.691406 111.695312 C 183.472656 108.125 180.007812 106.335938 175.285156 106.335938 Z M 175.285156 106.335938 "/>
<path style=" stroke:none;fill-rule:nonzero;fill:rgb(0%,45.882353%,56.078434%);fill-opacity:1;" d="M 151.609375 3.675781 C 154.605469 -3.707031 165.082031 1.882812 169.148438 4.464844 C 170.144531 5.109375 171.289062 6.472656 172.429688 6.976562 C 174.214844 7.046875 175.996094 7.1875 177.78125 7.261719 C 181.128906 8.050781 184.265625 8.695312 186.90625 10.203125 C 199.167969 17.445312 207.152344 24.828125 214.5 37.019531 C 216.070312 39.601562 216.855469 42.394531 218.136719 45.191406 C 219.917969 49.355469 221.917969 53.726562 223.984375 57.667969 C 224.90625 59.535156 225.625 61.609375 226.90625 63.1875 C 227.410156 63.910156 228.832031 64.121094 229.683594 64.550781 C 232.039062 65.773438 234.890625 66.703125 237.105469 68.136719 C 241.238281 70.722656 245.238281 73.800781 248.871094 76.957031 C 250.226562 78.175781 251.148438 79.898438 252.441406 81.183594 L 252.441406 81.835938 C 251.292969 82.1875 250.152344 82.546875 249.011719 82.835938 C 246.515625 83.480469 244.304688 83.335938 241.882812 83.980469 C 240.386719 84.414062 238.53125 84.988281 236.960938 85.132812 C 237.03125 85.203125 237.105469 85.28125 237.105469 85.28125 C 238.027344 87.925781 243.023438 90.078125 245.304688 91.65625 C 248.082031 93.664062 250.652344 96.101562 252.71875 98.898438 C 253.433594 99.609375 254.148438 100.261719 254.859375 100.972656 C 255.355469 101.691406 255.496094 102.625 256 103.269531 L 256 103.484375 C 255.441406 103.289062 255.042969 102.914062 254.664062 102.519531 L 254.4375 102.28125 C 254.210938 102.046875 253.980469 101.816406 253.722656 101.625 C 252.148438 100.546875 250.582031 99.257812 249.011719 98.253906 C 246.304688 96.53125 243.164062 95.53125 240.386719 93.804688 C 238.816406 92.800781 237.320312 91.65625 235.820312 90.511719 C 234.464844 89.503906 232.96875 87.570312 232.117188 86.136719 C 231.613281 85.34375 231.542969 84.414062 230.96875 83.839844 C 231.074219 82.882812 231.945312 82.597656 232.828125 82.363281 L 233.03125 82.3125 C 233.335938 82.230469 233.636719 82.152344 233.894531 82.046875 C 237.601562 80.46875 242.023438 79.898438 247.730469 80.039062 C 247.515625 78.605469 243.945312 76.8125 242.808594 75.953125 C 240.523438 74.300781 238.105469 72.578125 235.679688 71.074219 C 234.394531 70.285156 232.183594 69.710938 230.757812 69.070312 C 228.832031 68.28125 224.554688 67.492188 223.488281 65.988281 C 221.675781 63.617188 220.375 60.792969 219.109375 57.9375 L 218.765625 57.15625 C 218.648438 56.898438 218.535156 56.636719 218.421875 56.378906 C 216.925781 52.941406 215.070312 49.355469 213.574219 45.835938 C 212.789062 44.117188 212.429688 42.609375 211.570312 40.960938 C 206.371094 30.855469 198.667969 22.390625 189.328125 16.441406 C 186.261719 14.503906 182.839844 12.710938 179.0625 11.492188 C 176.921875 10.84375 174.355469 11.203125 172.074219 10.707031 L 170.570312 10.707031 C 169.289062 10.34375 168.222656 8.984375 167.222656 8.265625 C 165.015625 6.761719 162.804688 5.75 160.164062 4.679688 C 159.238281 4.25 156.597656 3.246094 155.675781 4.035156 C 155.105469 4.179688 154.8125 4.394531 154.675781 4.96875 C 154.105469 5.828125 154.605469 7.121094 154.960938 7.910156 C 156.03125 10.203125 157.527344 11.5625 158.882812 13.5 C 160.09375 15.21875 161.59375 17.15625 162.449219 19.023438 C 164.296875 23.035156 165.15625 27.484375 166.871094 31.496094 C 167.503906 33.003906 168.507812 34.722656 169.433594 36.085938 C 170.21875 37.164062 171.640625 37.945312 172.074219 39.3125 C 172.933594 40.75 170.785156 45.480469 170.289062 46.984375 C 168.433594 52.863281 168.792969 61.039062 170.933594 66.132812 C 170.96875 66.222656 171.007812 66.3125 171.046875 66.402344 L 171.160156 66.675781 C 171.941406 68.542969 172.777344 70.550781 174.851562 71.074219 C 174.996094 70.933594 174.851562 71.007812 175.136719 70.933594 C 175.640625 66.988281 175.78125 63.1875 177.136719 60.101562 C 177.921875 58.171875 179.484375 56.804688 180.558594 55.230469 C 181.273438 55.660156 181.273438 56.953125 181.699219 57.808594 C 182.625 60.03125 183.621094 62.46875 184.765625 64.695312 C 187.113281 69.285156 189.757812 73.730469 192.75 77.746094 C 193.753906 79.179688 195.175781 80.757812 196.457031 82.046875 C 197.03125 82.546875 197.667969 82.835938 198.097656 83.480469 L 198.238281 83.480469 L 198.238281 83.695312 C 196.101562 82.90625 194.746094 80.6875 193.039062 79.390625 C 189.828125 76.957031 185.980469 73.296875 183.765625 69.789062 C 182.839844 67.773438 181.839844 65.84375 180.839844 63.839844 L 180.839844 63.691406 C 180.414062 64.265625 180.558594 64.835938 180.34375 65.699219 C 179.417969 69.285156 180.132812 73.371094 176.921875 74.660156 C 173.285156 76.167969 170.570312 72.222656 169.433594 70.429688 C 165.796875 64.480469 164.800781 54.445312 167.363281 46.339844 C 167.933594 44.546875 168.011719 42.394531 169.007812 40.964844 C 168.792969 39.667969 167.796875 39.316406 167.222656 38.523438 C 166.222656 37.167969 165.371094 35.585938 164.585938 34.082031 C 163.085938 31.140625 162.019531 27.625 160.878906 24.46875 C 160.378906 23.183594 160.234375 21.890625 159.734375 20.667969 C 158.882812 18.808594 157.3125 16.941406 156.101562 15.292969 C 154.460938 12.925781 149.683594 8.339844 151.609375 3.675781 Z M 174.996094 17.726562 C 175.183594 17.917969 175.414062 18.082031 175.652344 18.25 L 175.941406 18.445312 C 176.324219 18.710938 176.691406 18.992188 176.921875 19.375 C 177.28125 19.878906 177.347656 20.375 177.777344 20.878906 C 177.777344 22.605469 177.28125 23.75 176.273438 24.464844 C 176.273438 24.464844 176.207031 24.539062 176.136719 24.609375 C 175.566406 23.460938 175.066406 22.316406 174.492188 21.171875 C 173.785156 20.167969 172.785156 19.375 172.210938 18.230469 L 172.070312 18.230469 L 172.070312 18.085938 C 172.933594 17.871094 173.785156 17.726562 174.996094 17.726562 Z M 174.996094 17.726562 "/>
</g>
</svg>
