<?xml version="1.0" encoding="UTF-8"?>
<svg xmlns="http://www.w3.org/2000/svg" xmlns:xlink="http://www.w3.org/1999/xlink" width="128px" height="26px" viewBox="0 0 128 26" version="1.1">
<g id="surface1">
<path style=" stroke:none;fill-rule:nonzero;fill:rgb(0%,0%,0%);fill-opacity:1;" d="M 107.386719 0.0117188 L 107.386719 4.125 L 98.542969 4.125 L 98.542969 25.773438 L 94.117188 25.773438 L 94.117188 4.125 L 85.089844 4.125 L 85.089844 0.0117188 Z M 108.378906 23.320312 C 108.691406 23.320312 108.964844 23.433594 109.195312 23.65625 C 109.429688 23.882812 109.546875 24.148438 109.546875 24.464844 C 109.546875 24.675781 109.492188 24.871094 109.382812 25.042969 C 109.273438 25.222656 109.132812 25.359375 108.953125 25.460938 C 108.78125 25.566406 108.589844 25.617188 108.378906 25.617188 C 108.054688 25.617188 107.78125 25.503906 107.550781 25.28125 C 107.320312 25.058594 107.207031 24.785156 107.207031 24.464844 C 107.207031 24.148438 107.320312 23.882812 107.550781 23.65625 C 107.78125 23.433594 108.054688 23.320312 108.378906 23.320312 Z M 20.730469 25.773438 L 4.421875 5.507812 L 4.421875 25.765625 L 0 25.765625 L 0 0 L 5.527344 0 L 26.128906 25.582031 L 26.128906 0.0117188 L 48.421875 0.0117188 L 48.421875 4.125 L 30.550781 4.125 L 30.550781 10.746094 L 44.921875 10.746094 L 44.921875 14.859375 L 30.550781 14.859375 L 30.550781 21.660156 L 48.421875 21.660156 L 48.421875 25.773438 Z M 62.597656 14.820312 L 65.496094 18.425781 L 59.554688 25.804688 L 53.75 25.804688 Z M 59.554688 0.0234375 L 67.039062 9.3125 L 74.496094 0.0507812 L 80.285156 0.0429688 L 69.9375 12.914062 L 80.300781 25.785156 L 74.496094 25.785156 L 53.769531 0.0234375 Z M 115.925781 14.765625 L 117.886719 14.765625 L 117.886719 22.3125 C 117.882812 23.007812 117.734375 23.601562 117.441406 24.101562 C 117.144531 24.597656 116.734375 24.980469 116.207031 25.25 C 115.683594 25.515625 115.066406 25.648438 114.371094 25.648438 C 113.730469 25.648438 113.160156 25.535156 112.648438 25.3125 C 112.140625 25.085938 111.734375 24.75 111.4375 24.308594 C 111.140625 23.863281 110.992188 23.3125 110.992188 22.648438 L 112.957031 22.648438 C 112.957031 22.941406 113.023438 23.191406 113.148438 23.398438 C 113.277344 23.609375 113.449219 23.769531 113.671875 23.882812 C 113.894531 23.992188 114.152344 24.050781 114.445312 24.050781 C 114.757812 24.050781 115.027344 23.984375 115.246094 23.851562 C 115.464844 23.722656 115.632812 23.527344 115.75 23.265625 C 115.863281 23.011719 115.925781 22.691406 115.925781 22.3125 Z M 125.949219 17.714844 C 125.902344 17.257812 125.691406 16.902344 125.328125 16.648438 C 124.957031 16.390625 124.480469 16.265625 123.898438 16.265625 C 123.488281 16.265625 123.132812 16.324219 122.839844 16.445312 C 122.546875 16.570312 122.320312 16.734375 122.164062 16.945312 C 122.007812 17.15625 121.929688 17.394531 121.921875 17.664062 C 121.921875 17.886719 121.976562 18.082031 122.082031 18.246094 C 122.1875 18.410156 122.328125 18.550781 122.511719 18.660156 C 122.691406 18.777344 122.890625 18.871094 123.109375 18.949219 C 123.332031 19.023438 123.554688 19.089844 123.773438 19.144531 L 124.796875 19.394531 C 125.207031 19.488281 125.605469 19.613281 125.988281 19.777344 C 126.367188 19.9375 126.710938 20.140625 127.015625 20.386719 C 127.316406 20.628906 127.554688 20.925781 127.734375 21.273438 C 127.910156 21.617188 128 22.019531 128 22.488281 C 128 23.117188 127.839844 23.667969 127.511719 24.148438 C 127.183594 24.621094 126.714844 24.996094 126.097656 25.261719 C 125.484375 25.527344 124.738281 25.664062 123.863281 25.664062 C 123.019531 25.664062 122.28125 25.535156 121.664062 25.273438 C 121.039062 25.019531 120.554688 24.640625 120.203125 24.144531 C 119.851562 23.648438 119.664062 23.042969 119.636719 22.332031 L 121.578125 22.332031 C 121.605469 22.703125 121.726562 23.011719 121.929688 23.265625 C 122.136719 23.511719 122.40625 23.695312 122.734375 23.820312 C 123.066406 23.941406 123.4375 24.003906 123.851562 24.003906 C 124.277344 24.003906 124.65625 23.9375 124.984375 23.8125 C 125.304688 23.683594 125.5625 23.507812 125.742188 23.277344 C 125.929688 23.050781 126.023438 22.78125 126.027344 22.472656 C 126.023438 22.191406 125.9375 21.960938 125.777344 21.777344 C 125.613281 21.59375 125.382812 21.441406 125.09375 21.316406 C 124.800781 21.191406 124.457031 21.078125 124.070312 20.980469 L 122.828125 20.667969 C 121.933594 20.441406 121.222656 20.097656 120.703125 19.632812 C 120.183594 19.167969 119.925781 18.554688 119.925781 17.785156 C 119.925781 17.152344 120.097656 16.597656 120.449219 16.121094 C 120.796875 15.648438 121.273438 15.277344 121.875 15.015625 C 122.480469 14.75 123.164062 14.621094 123.925781 14.621094 C 124.699219 14.621094 125.375 14.75 125.960938 15.015625 C 126.542969 15.277344 127.003906 15.644531 127.335938 16.109375 C 127.667969 16.578125 127.839844 17.109375 127.851562 17.714844 Z M 125.949219 17.714844 "/>
</g>
</svg>
