<?xml version="1.0" encoding="UTF-8"?>
<svg xmlns="http://www.w3.org/2000/svg" xmlns:xlink="http://www.w3.org/1999/xlink" width="128px" height="132px" viewBox="0 0 128 132" version="1.1">
<g id="surface1">
<path style=" stroke:none;fill-rule:nonzero;fill:rgb(0%,0%,0%);fill-opacity:1;" d="M 127.503906 79.042969 C 126.738281 76.71875 124.726562 75.101562 122.125 74.710938 C 120.898438 74.527344 119.496094 74.605469 117.835938 74.949219 C 114.9375 75.546875 112.789062 75.773438 111.222656 75.816406 C 117.140625 65.824219 121.953125 54.429688 124.722656 43.703125 C 129.203125 26.359375 126.808594 18.457031 124.011719 14.882812 C 116.609375 5.425781 105.808594 0.339844 92.777344 0.1875 C 85.824219 0.101562 79.722656 1.472656 76.539062 2.460938 C 73.574219 1.9375 70.386719 1.644531 67.042969 1.589844 C 60.773438 1.492188 55.238281 2.859375 50.503906 5.667969 C 47.882812 4.78125 43.679688 3.53125 38.824219 2.734375 C 27.402344 0.859375 18.195312 2.320312 11.464844 7.078125 C 3.3125 12.835938 -0.46875 22.84375 0.230469 36.816406 C 0.453125 41.253906 2.933594 54.753906 6.84375 67.558594 C 9.089844 74.914062 11.484375 81.027344 13.960938 85.722656 C 17.472656 92.378906 21.234375 96.300781 25.453125 97.707031 C 27.820312 98.496094 32.117188 99.046875 36.640625 95.285156 C 37.210938 95.976562 37.976562 96.667969 38.992188 97.308594 C 40.277344 98.121094 41.855469 98.785156 43.429688 99.175781 C 49.097656 100.59375 54.410156 100.238281 58.941406 98.253906 C 58.96875 99.058594 58.992188 99.828125 59.007812 100.492188 C 59.039062 101.574219 59.070312 102.628906 59.109375 103.617188 C 59.375 110.304688 59.832031 115.503906 61.179688 119.144531 C 61.253906 119.34375 61.351562 119.648438 61.457031 119.972656 C 62.128906 122.03125 63.253906 125.476562 66.117188 128.175781 C 69.078125 130.972656 72.664062 131.832031 75.945312 131.832031 C 77.589844 131.832031 79.160156 131.617188 80.539062 131.320312 C 85.449219 130.269531 91.023438 128.664062 95.058594 122.921875 C 98.871094 117.492188 100.726562 109.3125 101.0625 96.425781 C 101.105469 96.0625 101.144531 95.714844 101.183594 95.382812 C 101.210938 95.15625 101.238281 94.929688 101.265625 94.699219 L 102.164062 94.78125 L 102.394531 94.796875 C 107.394531 95.023438 113.511719 93.964844 117.265625 92.21875 C 120.234375 90.839844 129.742188 85.820312 127.503906 79.042969 "/>
<path style=" stroke:none;fill-rule:nonzero;fill:rgb(20%,40.392157%,56.862748%);fill-opacity:1;" d="M 118.953125 80.359375 C 104.082031 83.429688 103.0625 78.394531 103.0625 78.394531 C 118.761719 55.097656 125.324219 25.527344 119.660156 18.289062 C 104.207031 -1.453125 77.460938 7.882812 77.015625 8.125 L 76.871094 8.152344 C 73.933594 7.542969 70.644531 7.179688 66.949219 7.117188 C 60.222656 7.007812 55.117188 8.882812 51.246094 11.816406 C 51.246094 11.816406 3.53125 -7.839844 5.75 36.539062 C 6.222656 45.980469 19.28125 107.976562 34.859375 89.25 C 40.550781 82.402344 46.054688 76.613281 46.054688 76.613281 C 48.785156 78.429688 52.054688 79.355469 55.484375 79.023438 L 55.75 78.796875 C 55.667969 79.648438 55.707031 80.480469 55.859375 81.464844 C 51.84375 85.945312 53.023438 86.734375 45.003906 88.386719 C 36.886719 90.058594 41.652344 93.035156 44.765625 93.816406 C 48.542969 94.757812 57.273438 96.09375 63.175781 87.835938 L 62.9375 88.777344 C 64.511719 90.039062 65.613281 96.96875 65.429688 103.253906 C 65.246094 109.539062 65.121094 113.851562 66.359375 117.222656 C 67.597656 120.59375 68.835938 128.175781 79.378906 125.914062 C 88.191406 124.027344 92.757812 119.132812 93.394531 110.972656 C 93.84375 105.167969 94.863281 106.027344 94.929688 100.835938 L 95.746094 98.382812 C 96.691406 90.515625 95.898438 87.976562 101.324219 89.15625 L 102.644531 89.273438 C 106.640625 89.457031 111.871094 88.628906 114.941406 87.203125 C 121.550781 84.136719 125.46875 79.015625 118.953125 80.359375 "/>
<path style=" stroke:none;fill-rule:nonzero;fill:rgb(100%,100%,100%);fill-opacity:1;" d="M 54.039062 40.761719 C 52.699219 40.574219 51.484375 40.75 50.871094 41.214844 C 50.523438 41.476562 50.417969 41.777344 50.390625 41.988281 C 50.3125 42.539062 50.699219 43.148438 50.9375 43.464844 C 51.609375 44.355469 52.59375 44.96875 53.566406 45.105469 C 53.707031 45.125 53.847656 45.132812 53.988281 45.132812 C 55.609375 45.132812 57.085938 43.871094 57.214844 42.9375 C 57.378906 41.769531 55.683594 40.992188 54.039062 40.761719 "/>
<path style=" stroke:none;fill-rule:nonzero;fill:rgb(100%,100%,100%);fill-opacity:1;" d="M 98.429688 40.800781 C 98.300781 39.882812 96.671875 39.621094 95.125 39.835938 C 93.582031 40.054688 92.085938 40.75 92.210938 41.667969 C 92.3125 42.382812 93.597656 43.597656 95.125 43.597656 C 95.253906 43.597656 95.382812 43.589844 95.515625 43.570312 C 96.53125 43.429688 97.28125 42.785156 97.632812 42.410156 C 98.175781 41.84375 98.488281 41.210938 98.429688 40.800781 "/>
<path style=" stroke:none;fill-rule:nonzero;fill:rgb(100%,100%,100%);fill-opacity:1;" d="M 123.902344 80.011719 C 123.335938 78.296875 121.507812 77.746094 118.476562 78.371094 C 109.472656 80.230469 106.25 78.945312 105.191406 78.164062 C 112.191406 67.503906 117.945312 54.617188 121.050781 42.59375 C 122.523438 36.898438 123.335938 31.613281 123.402344 27.300781 C 123.476562 22.570312 122.667969 19.09375 121.007812 16.96875 C 114.304688 8.40625 104.472656 3.8125 92.566406 3.6875 C 84.382812 3.59375 77.464844 5.6875 76.125 6.277344 C 73.304688 5.574219 70.226562 5.144531 66.875 5.089844 C 60.730469 4.992188 55.421875 6.460938 51.023438 9.460938 C 49.113281 8.75 44.175781 7.054688 38.140625 6.082031 C 27.703125 4.402344 19.410156 5.675781 13.492188 9.867188 C 6.433594 14.871094 3.171875 23.8125 3.804688 36.445312 C 4.015625 40.699219 6.4375 53.773438 10.261719 66.296875 C 15.292969 82.777344 20.757812 92.109375 26.515625 94.027344 C 27.1875 94.253906 27.964844 94.410156 28.820312 94.410156 C 30.917969 94.410156 33.492188 93.464844 36.171875 90.246094 C 40.617188 84.894531 44.769531 80.410156 46.300781 78.78125 C 48.5625 79.996094 51.046875 80.675781 53.589844 80.742188 C 53.59375 80.808594 53.601562 80.875 53.605469 80.941406 C 53.097656 81.546875 52.679688 82.074219 52.320312 82.527344 C 50.5625 84.765625 50.195312 85.230469 44.527344 86.398438 C 42.914062 86.730469 38.628906 87.613281 38.566406 90.613281 C 38.5 93.894531 43.628906 95.269531 44.214844 95.417969 C 46.253906 95.925781 48.214844 96.179688 50.085938 96.179688 C 54.636719 96.179688 58.644531 94.683594 61.84375 91.789062 C 61.746094 103.480469 62.234375 115.003906 63.636719 118.515625 C 64.785156 121.386719 67.597656 128.410156 76.46875 128.410156 C 77.769531 128.410156 79.203125 128.257812 80.78125 127.921875 C 90.042969 125.9375 94.0625 121.84375 95.617188 112.820312 C 96.449219 107.996094 97.878906 96.480469 98.550781 90.304688 C 99.96875 90.746094 101.792969 90.949219 103.769531 90.949219 C 107.882812 90.949219 112.632812 90.074219 115.613281 88.691406 C 118.957031 87.140625 124.996094 83.324219 123.902344 80.011719 Z M 101.847656 38.273438 C 101.816406 40.097656 101.566406 41.75 101.300781 43.480469 C 101.015625 45.339844 100.71875 47.257812 100.644531 49.59375 C 100.570312 51.863281 100.851562 54.222656 101.128906 56.503906 C 101.683594 61.113281 102.25 65.859375 100.050781 70.542969 C 99.707031 69.9375 99.378906 69.273438 99.074219 68.539062 C 98.800781 67.875 98.207031 66.8125 97.386719 65.335938 C 94.183594 59.597656 86.691406 46.164062 90.527344 40.679688 C 91.671875 39.046875 94.570312 37.371094 101.847656 38.273438 Z M 93.027344 7.378906 C 103.691406 7.613281 112.128906 11.605469 118.105469 19.238281 C 122.6875 25.09375 117.640625 51.738281 103.035156 74.722656 C 102.890625 74.539062 102.742188 74.355469 102.59375 74.164062 C 102.53125 74.089844 102.46875 74.011719 102.40625 73.933594 C 106.179688 67.699219 105.441406 61.53125 104.785156 56.066406 C 104.515625 53.820312 104.261719 51.703125 104.328125 49.710938 C 104.394531 47.601562 104.671875 45.789062 104.941406 44.039062 C 105.273438 41.882812 105.613281 39.652344 105.519531 37.023438 C 105.585938 36.746094 105.617188 36.421875 105.578125 36.03125 C 105.34375 33.511719 102.460938 25.960938 96.59375 19.128906 C 93.382812 15.390625 88.699219 11.207031 82.304688 8.386719 C 85.054688 7.816406 88.816406 7.285156 93.027344 7.378906 Z M 33.335938 87.890625 C 30.386719 91.4375 28.351562 90.757812 27.679688 90.53125 C 23.316406 89.078125 18.25 79.851562 13.785156 65.222656 C 9.921875 52.5625 7.664062 39.832031 7.484375 36.261719 C 6.917969 24.972656 9.65625 17.105469 15.617188 12.878906 C 25.320312 6 41.269531 10.117188 47.679688 12.207031 C 47.589844 12.296875 47.492188 12.382812 47.402344 12.472656 C 36.882812 23.09375 37.132812 41.242188 37.160156 42.351562 C 37.15625 42.78125 37.191406 43.386719 37.242188 44.21875 C 37.421875 47.273438 37.761719 52.953125 36.859375 59.386719 C 36.023438 65.367188 37.867188 71.21875 41.914062 75.441406 C 42.335938 75.878906 42.773438 76.289062 43.226562 76.675781 C 41.421875 78.605469 37.503906 82.875 33.335938 87.890625 Z M 44.578125 72.890625 C 41.3125 69.488281 39.832031 64.75 40.511719 59.898438 C 41.460938 53.101562 41.109375 47.183594 40.921875 44.003906 C 40.894531 43.558594 40.871094 43.167969 40.859375 42.859375 C 42.394531 41.496094 49.515625 37.683594 54.59375 38.847656 C 56.910156 39.375 58.320312 40.953125 58.910156 43.667969 C 61.945312 57.71875 59.3125 63.578125 57.191406 68.28125 C 56.757812 69.253906 56.34375 70.167969 55.992188 71.117188 L 55.71875 71.851562 C 55.027344 73.703125 54.382812 75.425781 53.984375 77.0625 C 50.515625 77.050781 47.140625 75.570312 44.578125 72.890625 Z M 45.109375 91.84375 C 44.097656 91.589844 43.183594 91.148438 42.652344 90.785156 C 43.097656 90.574219 43.890625 90.289062 45.269531 90.007812 C 51.9375 88.632812 52.96875 87.664062 55.214844 84.808594 C 55.734375 84.152344 56.316406 83.410156 57.125 82.507812 C 57.125 82.507812 57.128906 82.507812 57.128906 82.507812 C 58.332031 81.15625 58.882812 81.386719 59.882812 81.800781 C 60.695312 82.136719 61.484375 83.152344 61.804688 84.269531 C 61.957031 84.796875 62.125 85.800781 61.570312 86.578125 C 56.871094 93.15625 50.027344 93.074219 45.109375 91.84375 Z M 80.007812 124.320312 C 71.851562 126.066406 68.960938 121.902344 67.058594 117.144531 C 65.828125 114.074219 65.226562 100.21875 65.65625 84.921875 C 65.660156 84.71875 65.632812 84.523438 65.574219 84.335938 C 65.527344 83.980469 65.449219 83.621094 65.347656 83.257812 C 64.710938 81.03125 63.15625 79.167969 61.296875 78.394531 C 60.554688 78.089844 59.195312 77.527344 57.566406 77.945312 C 57.914062 76.511719 58.515625 74.890625 59.171875 73.136719 L 59.445312 72.398438 C 59.753906 71.566406 60.140625 70.707031 60.550781 69.796875 C 62.769531 64.871094 65.804688 58.125 62.511719 42.890625 C 61.277344 37.183594 57.15625 34.394531 50.90625 35.042969 C 47.164062 35.429688 43.738281 36.941406 42.027344 37.808594 C 41.660156 37.996094 41.324219 38.175781 41.011719 38.351562 C 41.488281 32.597656 43.289062 21.855469 50.03125 15.054688 C 54.273438 10.773438 59.925781 8.660156 66.8125 8.773438 C 80.382812 8.996094 89.085938 15.960938 93.996094 21.765625 C 98.230469 26.765625 100.519531 31.800781 101.433594 34.519531 C 94.558594 33.820312 89.878906 35.175781 87.507812 38.566406 C 82.351562 45.941406 90.332031 60.253906 94.167969 67.132812 C 94.871094 68.390625 95.476562 69.480469 95.667969 69.945312 C 96.917969 72.972656 98.535156 74.992188 99.714844 76.46875 C 100.078125 76.917969 100.425781 77.359375 100.695312 77.742188 C 98.613281 78.339844 94.871094 79.730469 95.210938 86.664062 C 94.9375 90.144531 92.980469 106.4375 91.988281 112.195312 C 90.675781 119.800781 87.878906 122.632812 80.007812 124.320312 Z M 114.058594 85.351562 C 111.929688 86.339844 108.367188 87.082031 104.980469 87.238281 C 101.238281 87.414062 99.335938 86.820312 98.886719 86.457031 C 98.675781 82.132812 100.285156 81.683594 101.988281 81.203125 C 102.257812 81.128906 102.519531 81.054688 102.769531 80.96875 C 102.925781 81.09375 103.097656 81.222656 103.285156 81.34375 C 106.292969 83.328125 111.652344 83.542969 119.222656 81.980469 C 119.25 81.976562 119.277344 81.96875 119.304688 81.964844 C 118.285156 82.917969 116.539062 84.199219 114.058594 85.351562 Z M 114.058594 85.351562 "/>
</g>
</svg>
