<?xml version="1.0" encoding="UTF-8"?>
<svg xmlns="http://www.w3.org/2000/svg" xmlns:xlink="http://www.w3.org/1999/xlink" width="px" height="0px" viewBox="0 0 128 127" version="1.1">
<defs>
<linearGradient id="linear0" gradientUnits="userSpaceOnUse" x1="0.129594" y1="0.120394" x2="0.796388" y2="0.782009" gradientTransform="matrix(94.644531,0,0,94.527344,0.0742188,0.0351562)">
<stop offset="0" style="stop-color:rgb(21.960784%,49.411765%,72.156863%);stop-opacity:1;"/>
<stop offset="1" style="stop-color:rgb(21.176471%,41.176471%,58.039216%);stop-opacity:1;"/>
</linearGradient>
<linearGradient id="linear1" gradientUnits="userSpaceOnUse" x1="0.191275" y1="0.205792" x2="0.907415" y2="0.88429" gradientTransform="matrix(94.644531,0,0,94.527344,33.121094,32.039063)">
<stop offset="0" style="stop-color:rgb(100%,87.843137%,32.156863%);stop-opacity:1;"/>
<stop offset="1" style="stop-color:rgb(100%,76.470588%,19.215686%);stop-opacity:1;"/>
</linearGradient>
</defs>
<g id="surface1">
<path style=" stroke:none;fill-rule:nonzero;fill:url(#linear0);" d="M 63.457031 0.0351562 C 31.042969 0.0351562 33.066406 14.039062 33.066406 14.039062 L 33.101562 28.542969 L 64.035156 28.542969 L 64.035156 32.902344 L 20.816406 32.902344 C 20.816406 32.902344 0.0742188 30.558594 0.0742188 63.136719 C 0.0742188 95.71875 18.175781 94.5625 18.175781 94.5625 L 28.984375 94.5625 L 28.984375 79.441406 C 28.984375 79.441406 28.398438 61.410156 46.796875 61.410156 L 77.480469 61.410156 C 77.480469 61.410156 94.71875 61.6875 94.71875 44.816406 L 94.71875 16.917969 C 94.71875 16.917969 97.335938 0.0351562 63.457031 0.0351562 Z M 46.402344 9.789062 C 49.480469 9.789062 51.964844 12.269531 51.964844 15.335938 C 51.964844 18.398438 49.480469 20.878906 46.402344 20.878906 C 43.324219 20.878906 40.835938 18.398438 40.835938 15.335938 C 40.835938 12.269531 43.324219 9.789062 46.402344 9.789062 Z M 46.402344 9.789062 "/>
<path style=" stroke:none;fill-rule:nonzero;fill:url(#linear1);" d="M 64.378906 126.566406 C 96.792969 126.566406 94.769531 112.5625 94.769531 112.5625 L 94.734375 98.054688 L 63.800781 98.054688 L 63.800781 93.699219 L 107.019531 93.699219 C 107.019531 93.699219 127.765625 96.042969 127.765625 63.464844 C 127.765625 30.882812 109.660156 32.039062 109.660156 32.039062 L 98.855469 32.039062 L 98.855469 47.15625 C 98.855469 47.15625 99.4375 65.191406 81.039062 65.191406 L 50.355469 65.191406 C 50.355469 65.191406 33.121094 64.914062 33.121094 81.785156 L 33.121094 109.683594 C 33.121094 109.683594 30.503906 126.566406 64.378906 126.566406 Z M 81.4375 116.808594 C 78.359375 116.808594 75.871094 114.332031 75.871094 111.265625 C 75.871094 108.199219 78.359375 105.722656 81.4375 105.722656 C 84.511719 105.722656 87 108.199219 87 111.265625 C 87 114.332031 84.511719 116.808594 81.4375 116.808594 Z M 81.4375 116.808594 "/>
</g>
</svg>
