<?xml version="1.0" encoding="UTF-8"?>
<svg xmlns="http://www.w3.org/2000/svg" xmlns:xlink="http://www.w3.org/1999/xlink" width="128px" height="114px" viewBox="0 0 128 114" version="1.1">
<g id="surface1">
<path style=" stroke:none;fill-rule:nonzero;fill:rgb(0%,84.705883%,100%);fill-opacity:1;" d="M 105.242188 36.910156 C 103.914062 36.453125 102.539062 36.023438 101.121094 35.613281 C 101.355469 34.664062 101.566406 33.726562 101.757812 32.804688 C 104.875 17.664062 102.835938 5.464844 95.875 1.449219 C 89.195312 -2.402344 78.277344 1.613281 67.246094 11.210938 C 66.1875 12.136719 65.121094 13.113281 64.058594 14.136719 C 63.351562 13.457031 62.644531 12.804688 61.9375 12.175781 C 50.378906 1.914062 38.792969 -2.410156 31.835938 1.617188 C 25.164062 5.480469 23.191406 16.945312 25.996094 31.292969 C 26.269531 32.679688 26.585938 34.09375 26.945312 35.535156 C 25.304688 36 23.722656 36.496094 22.207031 37.023438 C 8.65625 41.75 0 49.152344 0 56.835938 C 0 64.765625 9.289062 72.722656 23.40625 77.546875 C 24.519531 77.929688 25.675781 78.289062 26.867188 78.628906 C 26.480469 80.1875 26.144531 81.710938 25.863281 83.199219 C 23.183594 97.300781 25.273438 108.496094 31.929688 112.332031 C 38.800781 116.296875 50.335938 112.222656 61.566406 102.40625 C 62.453125 101.628906 63.34375 100.804688 64.234375 99.941406 C 65.394531 101.058594 66.546875 102.109375 67.695312 103.101562 C 78.574219 112.460938 89.320312 116.242188 95.964844 112.394531 C 102.832031 108.417969 105.0625 96.390625 102.167969 81.757812 C 101.945312 80.640625 101.6875 79.5 101.398438 78.335938 C 102.207031 78.097656 103.003906 77.851562 103.777344 77.59375 C 118.453125 72.730469 128 64.871094 128 56.835938 C 128 49.125 119.066406 41.671875 105.242188 36.910156 Z M 102.058594 72.402344 C 101.359375 72.636719 100.640625 72.859375 99.910156 73.078125 C 98.289062 67.949219 96.101562 62.496094 93.425781 56.859375 C 95.980469 51.359375 98.082031 45.976562 99.65625 40.882812 C 100.964844 41.261719 102.238281 41.660156 103.460938 42.082031 C 115.308594 46.160156 122.53125 52.1875 122.53125 56.835938 C 122.53125 61.78125 114.730469 68.207031 102.058594 72.402344 Z M 96.800781 82.820312 C 98.082031 89.292969 98.265625 95.140625 97.417969 99.714844 C 96.65625 103.824219 95.121094 106.5625 93.226562 107.660156 C 89.191406 109.996094 80.566406 106.960938 71.261719 98.953125 C 70.195312 98.039062 69.121094 97.058594 68.042969 96.019531 C 71.652344 92.074219 75.253906 87.488281 78.773438 82.398438 C 84.960938 81.847656 90.808594 80.949219 96.109375 79.726562 C 96.371094 80.777344 96.601562 81.8125 96.800781 82.820312 Z M 43.636719 107.257812 C 39.695312 108.648438 36.558594 108.6875 34.660156 107.59375 C 30.625 105.265625 28.945312 96.277344 31.234375 84.21875 C 31.496094 82.839844 31.808594 81.417969 32.167969 79.96875 C 37.410156 81.128906 43.214844 81.964844 49.417969 82.464844 C 52.960938 87.449219 56.667969 92.03125 60.40625 96.042969 C 59.589844 96.828125 58.777344 97.582031 57.96875 98.289062 C 53 102.628906 48.023438 105.707031 43.636719 107.257812 Z M 25.175781 72.375 C 18.933594 70.238281 13.777344 67.46875 10.246094 64.441406 C 7.070312 61.722656 5.46875 59.023438 5.46875 56.835938 C 5.46875 52.171875 12.417969 46.226562 24.007812 42.1875 C 25.414062 41.695312 26.882812 41.234375 28.414062 40.800781 C 30.015625 46.011719 32.113281 51.457031 34.652344 56.96875 C 32.082031 62.558594 29.949219 68.089844 28.332031 73.363281 C 27.246094 73.050781 26.191406 72.71875 25.175781 72.375 Z M 31.363281 30.242188 C 28.957031 17.949219 30.554688 8.675781 34.574219 6.347656 C 38.859375 3.871094 48.328125 7.40625 58.308594 16.265625 C 58.945312 16.832031 59.585938 17.425781 60.226562 18.039062 C 56.507812 22.03125 52.835938 26.578125 49.324219 31.53125 C 43.304688 32.089844 37.542969 32.988281 32.242188 34.1875 C 31.910156 32.847656 31.617188 31.53125 31.363281 30.242188 Z M 86.578125 43.878906 C 85.308594 41.691406 84.011719 39.554688 82.683594 37.476562 C 86.769531 37.992188 90.679688 38.679688 94.355469 39.515625 C 93.253906 43.050781 91.878906 46.75 90.257812 50.539062 C 89.097656 48.335938 87.871094 46.113281 86.578125 43.878906 Z M 64.0625 21.945312 C 66.582031 24.679688 69.109375 27.730469 71.59375 31.039062 C 69.089844 30.921875 66.554688 30.859375 64 30.859375 C 61.46875 30.859375 58.953125 30.921875 56.464844 31.035156 C 58.953125 27.757812 61.5 24.710938 64.0625 21.945312 Z M 41.402344 43.914062 C 40.136719 46.109375 38.929688 48.320312 37.789062 50.535156 C 36.195312 46.757812 34.832031 43.042969 33.71875 39.457031 C 37.371094 38.640625 41.265625 37.972656 45.324219 37.464844 C 43.980469 39.5625 42.667969 41.714844 41.402344 43.914062 Z M 45.441406 76.589844 C 41.25 76.125 37.296875 75.488281 33.644531 74.695312 C 34.777344 71.046875 36.167969 67.253906 37.792969 63.394531 C 38.941406 65.609375 40.148438 67.820312 41.421875 70.019531 C 42.71875 72.257812 44.0625 74.453125 45.441406 76.589844 Z M 64.210938 92.105469 C 61.621094 89.308594 59.035156 86.21875 56.511719 82.890625 C 58.960938 82.984375 61.460938 83.035156 64 83.035156 C 66.609375 83.035156 69.1875 82.976562 71.726562 82.863281 C 69.234375 86.25 66.71875 89.347656 64.210938 92.105469 Z M 90.3125 63.199219 C 92.023438 67.097656 93.464844 70.871094 94.609375 74.457031 C 90.898438 75.304688 86.890625 75.988281 82.667969 76.492188 C 84 74.386719 85.308594 72.214844 86.597656 69.980469 C 87.902344 67.71875 89.140625 65.453125 90.3125 63.199219 Z M 81.863281 67.25 C 79.863281 70.71875 77.808594 74.03125 75.722656 77.15625 C 71.921875 77.425781 68 77.566406 64 77.566406 C 60.015625 77.566406 56.140625 77.445312 52.410156 77.203125 C 50.242188 74.035156 48.144531 70.710938 46.15625 67.277344 C 44.171875 63.851562 42.347656 60.398438 40.695312 56.964844 C 42.347656 53.523438 44.167969 50.066406 46.136719 46.644531 L 46.136719 46.648438 C 48.113281 43.21875 50.195312 39.914062 52.34375 36.765625 C 56.152344 36.480469 60.054688 36.328125 64 36.328125 C 67.960938 36.328125 71.871094 36.480469 75.675781 36.769531 C 77.792969 39.894531 79.859375 43.1875 81.84375 46.617188 C 83.851562 50.085938 85.695312 53.519531 87.363281 56.886719 C 85.699219 60.3125 83.859375 63.785156 81.863281 67.25 Z M 93.140625 6.1875 C 97.429688 8.660156 99.09375 18.628906 96.402344 31.699219 C 96.230469 32.535156 96.039062 33.382812 95.828125 34.242188 C 90.515625 33.019531 84.75 32.105469 78.710938 31.539062 C 75.195312 26.53125 71.550781 21.980469 67.890625 18.035156 C 68.875 17.089844 69.859375 16.1875 70.835938 15.335938 C 80.285156 7.113281 89.117188 3.867188 93.140625 6.1875 Z M 64 45.402344 C 70.3125 45.402344 75.429688 50.519531 75.429688 56.835938 C 75.429688 63.148438 70.3125 68.265625 64 68.265625 C 57.6875 68.265625 52.570312 63.148438 52.570312 56.835938 C 52.570312 50.519531 57.6875 45.402344 64 45.402344 Z M 64 45.402344 "/>
</g>
</svg>
