<?xml version="1.0" encoding="UTF-8"?>
<svg xmlns="http://www.w3.org/2000/svg" xmlns:xlink="http://www.w3.org/1999/xlink" width="128px" height="103px" viewBox="0 0 128 103" version="1.1">
<g id="surface1">
<path style=" stroke:none;fill-rule:nonzero;fill:rgb(38.039216%,85.490197%,98.431373%);fill-opacity:1;" d="M 105.878906 47.039062 C 105.878906 41.425781 98.871094 36.105469 88.128906 32.804688 C 90.609375 21.820312 89.507812 13.078125 84.652344 10.277344 C 83.53125 9.621094 82.222656 9.3125 80.792969 9.3125 L 80.792969 13.164062 C 81.585938 13.164062 82.222656 13.320312 82.757812 13.613281 C 85.097656 14.960938 86.113281 20.089844 85.324219 26.691406 C 85.132812 28.3125 84.824219 30.023438 84.445312 31.769531 C 81.070312 30.9375 77.386719 30.300781 73.511719 29.886719 C 71.1875 26.691406 68.777344 23.789062 66.351562 21.25 C 71.960938 16.015625 77.230469 13.148438 80.8125 13.148438 L 80.8125 9.292969 C 76.078125 9.292969 69.878906 12.679688 63.613281 18.554688 C 57.34375 12.714844 51.148438 9.363281 46.414062 9.363281 L 46.414062 13.214844 C 49.976562 13.214844 55.261719 16.066406 60.875 21.265625 C 58.464844 23.804688 56.054688 26.691406 53.765625 29.886719 C 49.875 30.300781 46.1875 30.9375 42.816406 31.785156 C 42.417969 30.058594 42.125 28.382812 41.917969 26.777344 C 41.109375 20.175781 42.109375 15.046875 44.433594 13.683594 C 44.949219 13.371094 45.621094 13.234375 46.414062 13.234375 L 46.414062 9.378906 C 44.964844 9.378906 43.65625 9.691406 42.523438 10.347656 C 37.683594 13.148438 36.597656 21.871094 39.09375 32.820312 C 28.386719 36.140625 21.414062 41.441406 21.414062 47.039062 C 21.414062 52.652344 28.421875 57.972656 39.164062 61.273438 C 36.683594 72.261719 37.785156 81 42.640625 83.800781 C 43.761719 84.457031 45.070312 84.765625 46.515625 84.765625 C 51.25 84.765625 57.449219 81.382812 63.714844 75.507812 C 69.984375 81.347656 76.179688 84.699219 80.914062 84.699219 C 82.363281 84.699219 83.671875 84.386719 84.804688 83.730469 C 89.644531 80.933594 90.730469 72.207031 88.230469 61.257812 C 98.90625 57.957031 105.878906 52.636719 105.878906 47.039062 Z M 83.464844 35.515625 C 82.828125 37.746094 82.035156 40.042969 81.140625 42.339844 C 80.433594 40.957031 79.691406 39.578125 78.882812 38.195312 C 78.09375 36.8125 77.246094 35.464844 76.40625 34.152344 C 78.847656 34.515625 81.207031 34.964844 83.464844 35.515625 Z M 75.578125 53.914062 C 74.234375 56.246094 72.859375 58.457031 71.429688 60.511719 C 68.863281 60.738281 66.265625 60.859375 63.648438 60.859375 C 61.046875 60.859375 58.445312 60.738281 55.898438 60.53125 C 54.46875 58.476562 53.074219 56.28125 51.734375 53.964844 C 50.425781 51.703125 49.238281 49.40625 48.152344 47.089844 C 49.21875 44.777344 50.425781 42.460938 51.714844 40.199219 C 53.058594 37.867188 54.4375 35.65625 55.863281 33.597656 C 58.429688 33.375 61.03125 33.253906 63.648438 33.253906 C 66.246094 33.253906 68.847656 33.375 71.394531 33.582031 C 72.824219 35.636719 74.21875 37.832031 75.5625 40.148438 C 76.871094 42.410156 78.058594 44.707031 79.140625 47.023438 C 78.058594 49.335938 76.871094 51.652344 75.578125 53.914062 Z M 81.140625 51.667969 C 82.042969 53.921875 82.835938 56.214844 83.515625 58.542969 C 81.257812 59.097656 78.882812 59.5625 76.421875 59.925781 C 77.265625 58.597656 78.109375 57.230469 78.902344 55.832031 C 79.691406 54.449219 80.433594 53.050781 81.140625 51.667969 Z M 63.679688 70.101562 C 62.078125 68.441406 60.480469 66.59375 58.894531 64.574219 C 60.445312 64.640625 62.027344 64.695312 63.628906 64.695312 C 65.246094 64.695312 66.847656 64.660156 68.414062 64.574219 C 66.9375 66.5 65.359375 68.34375 63.679688 70.101562 Z M 50.871094 59.925781 C 48.425781 59.5625 46.066406 59.113281 43.8125 58.5625 C 44.449219 56.332031 45.242188 54.035156 46.136719 51.738281 C 46.84375 53.121094 47.582031 54.5 48.390625 55.882812 C 49.203125 57.265625 50.027344 58.613281 50.871094 59.925781 Z M 63.59375 23.976562 C 65.195312 25.636719 66.796875 27.484375 68.382812 29.503906 C 66.832031 29.4375 65.246094 29.382812 63.648438 29.382812 C 62.027344 29.382812 60.425781 29.417969 58.859375 29.503906 C 60.339844 27.578125 61.917969 25.734375 63.59375 23.976562 Z M 50.855469 34.152344 C 50.011719 35.484375 49.167969 36.847656 48.375 38.246094 C 47.582031 39.628906 46.84375 41.011719 46.136719 42.390625 C 45.234375 40.140625 44.441406 37.847656 43.761719 35.515625 C 46.015625 34.980469 48.390625 34.515625 50.855469 34.152344 Z M 35.273438 55.78125 C 29.179688 53.171875 25.234375 49.75 25.234375 47.039062 C 25.234375 44.328125 29.179688 40.890625 35.273438 38.296875 C 36.753906 37.660156 38.371094 37.089844 40.042969 36.554688 C 41.023438 39.9375 42.316406 43.464844 43.917969 47.074219 C 42.332031 50.667969 41.058594 54.171875 40.09375 57.542969 C 38.390625 57.007812 36.769531 56.417969 35.273438 55.78125 Z M 44.535156 80.464844 C 42.195312 79.117188 41.179688 73.988281 41.972656 67.386719 C 42.160156 65.765625 42.46875 64.054688 42.847656 62.308594 C 46.222656 63.140625 49.90625 63.777344 53.78125 64.191406 C 56.105469 67.386719 58.515625 70.289062 60.945312 72.828125 C 55.332031 78.0625 50.0625 80.933594 46.480469 80.933594 C 45.707031 80.914062 45.054688 80.757812 44.535156 80.464844 Z M 85.375 67.300781 C 86.183594 73.902344 85.183594 79.03125 82.859375 80.394531 C 82.34375 80.707031 81.671875 80.84375 80.878906 80.84375 C 77.316406 80.84375 72.03125 77.996094 66.417969 72.796875 C 68.828125 70.257812 71.238281 67.371094 73.53125 64.175781 C 77.421875 63.761719 81.105469 63.121094 84.480469 62.273438 C 84.875 64.019531 85.183594 65.695312 85.375 67.300781 Z M 92.003906 55.78125 C 90.523438 56.417969 88.902344 56.988281 87.234375 57.523438 C 86.253906 54.140625 84.960938 50.613281 83.359375 47.003906 C 84.945312 43.410156 86.21875 39.90625 87.183594 36.535156 C 88.886719 37.070312 90.503906 37.660156 92.019531 38.296875 C 98.113281 40.90625 102.058594 44.328125 102.058594 47.039062 C 102.039062 49.75 98.097656 53.1875 92.003906 55.78125 Z M 92.003906 55.78125 "/>
<path style=" stroke:none;fill-rule:nonzero;fill:rgb(38.039216%,85.490197%,98.431373%);fill-opacity:1;" d="M 63.628906 54.933594 C 67.976562 54.933594 71.496094 51.398438 71.496094 47.039062 C 71.496094 42.679688 67.976562 39.144531 63.628906 39.144531 C 59.285156 39.144531 55.761719 42.679688 55.761719 47.039062 C 55.761719 51.398438 59.285156 54.933594 63.628906 54.933594 Z M 25.25 98.359375 L 22.652344 98.359375 L 22.652344 102.847656 L 21.1875 102.847656 L 21.1875 91.753906 L 24.847656 91.753906 C 26.09375 91.753906 27.050781 92.039062 27.71875 92.605469 C 28.390625 93.175781 28.726562 94.003906 28.726562 95.089844 C 28.726562 95.78125 28.539062 96.382812 28.164062 96.894531 C 27.796875 97.410156 27.28125 97.792969 26.617188 98.046875 L 29.214844 102.757812 L 29.214844 102.847656 L 27.648438 102.847656 Z M 22.652344 97.164062 L 24.890625 97.164062 C 25.617188 97.164062 26.191406 96.976562 26.617188 96.597656 C 27.046875 96.222656 27.261719 95.71875 27.261719 95.089844 C 27.261719 94.40625 27.058594 93.878906 26.648438 93.511719 C 26.242188 93.148438 25.65625 92.960938 24.882812 92.957031 L 22.652344 92.957031 Z M 33.96875 103 C 32.855469 103 31.949219 102.632812 31.25 101.902344 C 30.550781 101.164062 30.199219 100.183594 30.199219 98.953125 L 30.199219 98.695312 C 30.199219 97.875 30.355469 97.148438 30.664062 96.507812 C 30.976562 95.863281 31.414062 95.359375 31.96875 95 C 32.53125 94.632812 33.140625 94.449219 33.792969 94.449219 C 34.863281 94.449219 35.691406 94.804688 36.285156 95.507812 C 36.875 96.214844 37.171875 97.226562 37.171875 98.542969 L 37.171875 99.128906 L 31.605469 99.128906 C 31.625 99.941406 31.863281 100.601562 32.3125 101.101562 C 32.769531 101.601562 33.34375 101.847656 34.042969 101.847656 C 34.539062 101.847656 34.960938 101.746094 35.304688 101.542969 C 35.648438 101.339844 35.949219 101.070312 36.207031 100.738281 L 37.066406 101.40625 C 36.378906 102.46875 35.34375 103 33.96875 103 Z M 33.792969 95.609375 C 33.226562 95.609375 32.75 95.816406 32.367188 96.234375 C 31.980469 96.644531 31.742188 97.222656 31.652344 97.96875 L 35.769531 97.96875 L 35.769531 97.863281 C 35.726562 97.148438 35.535156 96.59375 35.191406 96.203125 C 34.847656 95.808594 34.378906 95.609375 33.792969 95.609375 Z M 43.878906 102.847656 C 43.796875 102.683594 43.730469 102.394531 43.679688 101.980469 C 43.027344 102.660156 42.25 103 41.34375 103 C 40.53125 103 39.867188 102.769531 39.34375 102.3125 C 38.828125 101.851562 38.570312 101.265625 38.570312 100.5625 C 38.570312 99.703125 38.894531 99.039062 39.542969 98.566406 C 40.195312 98.085938 41.113281 97.847656 42.292969 97.847656 L 43.660156 97.847656 L 43.660156 97.203125 C 43.660156 96.707031 43.511719 96.316406 43.21875 96.027344 C 42.925781 95.734375 42.492188 95.585938 41.917969 95.585938 C 41.417969 95.585938 40.996094 95.710938 40.660156 95.964844 C 40.320312 96.21875 40.148438 96.527344 40.148438 96.890625 L 38.738281 96.890625 C 38.738281 96.476562 38.882812 96.082031 39.167969 95.699219 C 39.464844 95.3125 39.859375 95.007812 40.355469 94.785156 C 40.855469 94.5625 41.40625 94.449219 42.003906 94.449219 C 42.949219 94.449219 43.691406 94.6875 44.226562 95.167969 C 44.765625 95.640625 45.042969 96.292969 45.0625 97.125 L 45.0625 100.917969 C 45.0625 101.675781 45.160156 102.277344 45.351562 102.726562 L 45.351562 102.847656 Z M 41.546875 101.773438 C 41.988281 101.773438 42.40625 101.660156 42.800781 101.429688 C 43.195312 101.203125 43.480469 100.90625 43.660156 100.539062 L 43.660156 98.847656 L 42.558594 98.847656 C 40.835938 98.847656 39.976562 99.351562 39.976562 100.363281 C 39.976562 100.804688 40.121094 101.152344 40.414062 101.398438 C 40.707031 101.648438 41.085938 101.773438 41.546875 101.773438 Z M 50.5625 101.847656 C 51.0625 101.847656 51.5 101.695312 51.875 101.390625 C 52.25 101.085938 52.457031 100.707031 52.496094 100.25 L 53.828125 100.25 C 53.800781 100.722656 53.640625 101.171875 53.339844 101.597656 C 53.042969 102.023438 52.640625 102.363281 52.140625 102.617188 C 51.644531 102.871094 51.117188 103 50.5625 103 C 49.441406 103 48.550781 102.625 47.886719 101.878906 C 47.230469 101.128906 46.902344 100.101562 46.902344 98.800781 L 46.902344 98.566406 C 46.902344 97.761719 47.046875 97.046875 47.339844 96.425781 C 47.636719 95.800781 48.054688 95.3125 48.601562 94.96875 C 49.152344 94.621094 49.804688 94.449219 50.554688 94.449219 C 51.476562 94.449219 52.238281 94.726562 52.847656 95.28125 C 53.460938 95.835938 53.785156 96.554688 53.828125 97.4375 L 52.496094 97.4375 C 52.457031 96.902344 52.253906 96.46875 51.890625 96.125 C 51.53125 95.78125 51.085938 95.609375 50.554688 95.609375 C 49.839844 95.609375 49.285156 95.867188 48.890625 96.386719 C 48.5 96.898438 48.304688 97.644531 48.304688 98.617188 L 48.304688 98.886719 C 48.304688 99.835938 48.5 100.566406 48.890625 101.078125 C 49.28125 101.59375 49.835938 101.847656 50.5625 101.847656 Z M 57.3125 92.605469 L 57.3125 94.601562 L 58.847656 94.601562 L 58.847656 95.691406 L 57.3125 95.691406 L 57.3125 100.804688 C 57.3125 101.136719 57.382812 101.382812 57.519531 101.550781 C 57.65625 101.714844 57.886719 101.796875 58.21875 101.796875 C 58.378906 101.796875 58.601562 101.765625 58.886719 101.703125 L 58.886719 102.847656 C 58.515625 102.949219 58.15625 103 57.804688 103 C 57.179688 103 56.707031 102.808594 56.386719 102.429688 C 56.066406 102.046875 55.910156 101.507812 55.910156 100.804688 L 55.910156 95.691406 L 54.410156 95.691406 L 54.410156 94.601562 L 55.910156 94.601562 L 55.910156 92.605469 Z M 73.070312 102.847656 L 71.605469 102.847656 L 66.039062 94.296875 L 66.039062 102.847656 L 64.574219 102.847656 L 64.574219 91.753906 L 66.039062 91.753906 L 71.621094 100.339844 L 71.621094 91.753906 L 73.070312 91.753906 Z M 80.515625 102.847656 C 80.433594 102.683594 80.367188 102.394531 80.316406 101.980469 C 79.664062 102.660156 78.882812 103 77.976562 103 C 77.167969 103 76.5 102.769531 75.980469 102.3125 C 75.464844 101.851562 75.207031 101.265625 75.207031 100.5625 C 75.207031 99.703125 75.53125 99.039062 76.175781 98.566406 C 76.832031 98.085938 77.746094 97.847656 78.925781 97.847656 L 80.292969 97.847656 L 80.292969 97.203125 C 80.292969 96.707031 80.148438 96.316406 79.851562 96.027344 C 79.558594 95.734375 79.125 95.585938 78.554688 95.585938 C 78.054688 95.585938 77.632812 95.710938 77.292969 95.964844 C 76.953125 96.21875 76.785156 96.527344 76.785156 96.890625 L 75.371094 96.890625 C 75.371094 96.476562 75.515625 96.082031 75.804688 95.699219 C 76.097656 95.3125 76.496094 95.007812 76.992188 94.785156 C 77.492188 94.5625 78.039062 94.449219 78.636719 94.449219 C 79.585938 94.449219 80.328125 94.6875 80.863281 95.167969 C 81.398438 95.640625 81.679688 96.292969 81.699219 97.125 L 81.699219 100.917969 C 81.699219 101.675781 81.796875 102.277344 81.988281 102.726562 L 81.988281 102.847656 Z M 78.183594 101.773438 C 78.625 101.773438 79.039062 101.660156 79.4375 101.429688 C 79.832031 101.203125 80.117188 100.90625 80.292969 100.539062 L 80.292969 98.847656 L 79.191406 98.847656 C 77.472656 98.847656 76.609375 99.351562 76.609375 100.363281 C 76.609375 100.804688 76.757812 101.152344 77.050781 101.398438 C 77.34375 101.648438 77.722656 101.773438 78.183594 101.773438 Z M 85.808594 92.605469 L 85.808594 94.601562 L 87.339844 94.601562 L 87.339844 95.691406 L 85.808594 95.691406 L 85.808594 100.804688 C 85.808594 101.136719 85.875 101.382812 86.011719 101.550781 C 86.148438 101.714844 86.382812 101.796875 86.710938 101.796875 C 86.871094 101.796875 87.097656 101.765625 87.378906 101.703125 L 87.378906 102.847656 C 87.007812 102.949219 86.652344 103 86.300781 103 C 85.671875 103 85.199219 102.808594 84.878906 102.429688 C 84.5625 102.046875 84.402344 101.507812 84.402344 100.804688 L 84.402344 95.691406 L 82.90625 95.691406 L 82.90625 94.601562 L 84.402344 94.601562 L 84.402344 92.605469 Z M 90.515625 102.847656 L 89.109375 102.847656 L 89.109375 94.601562 L 90.515625 94.601562 Z M 88.996094 92.414062 C 88.996094 92.1875 89.066406 91.996094 89.203125 91.835938 C 89.34375 91.679688 89.550781 91.601562 89.824219 91.601562 C 90.097656 91.601562 90.304688 91.679688 90.449219 91.835938 C 90.589844 91.996094 90.660156 92.1875 90.660156 92.414062 C 90.660156 92.644531 90.589844 92.835938 90.449219 92.988281 C 90.304688 93.140625 90.097656 93.214844 89.824219 93.214844 C 89.550781 93.214844 89.34375 93.140625 89.203125 92.988281 C 89.066406 92.835938 88.996094 92.644531 88.996094 92.414062 Z M 95.484375 100.933594 L 97.519531 94.601562 L 98.953125 94.601562 L 96.007812 102.847656 L 94.9375 102.847656 L 91.960938 94.601562 L 93.394531 94.601562 Z M 103.609375 103 C 102.496094 103 101.589844 102.632812 100.890625 101.902344 C 100.191406 101.164062 99.84375 100.183594 99.84375 98.953125 L 99.84375 98.695312 C 99.84375 97.875 99.996094 97.148438 100.304688 96.507812 C 100.617188 95.863281 101.054688 95.359375 101.613281 95 C 102.171875 94.632812 102.78125 94.449219 103.433594 94.449219 C 104.503906 94.449219 105.332031 94.804688 105.925781 95.507812 C 106.515625 96.214844 106.8125 97.226562 106.8125 98.542969 L 106.8125 99.128906 L 101.246094 99.128906 C 101.265625 99.941406 101.503906 100.601562 101.953125 101.101562 C 102.410156 101.601562 102.984375 101.847656 103.683594 101.847656 C 104.179688 101.847656 104.601562 101.746094 104.945312 101.542969 C 105.289062 101.339844 105.589844 101.070312 105.847656 100.738281 L 106.707031 101.40625 C 106.019531 102.46875 104.984375 103 103.609375 103 Z M 103.433594 95.609375 C 102.867188 95.609375 102.390625 95.816406 102.007812 96.234375 C 101.621094 96.644531 101.382812 97.222656 101.292969 97.96875 L 105.410156 97.96875 L 105.410156 97.863281 C 105.367188 97.148438 105.175781 96.59375 104.832031 96.203125 C 104.488281 95.808594 104.019531 95.609375 103.433594 95.609375 Z M 103.433594 95.609375 "/>
</g>
</svg>
