<?xml version="1.0" encoding="UTF-8"?>
<svg xmlns="http://www.w3.org/2000/svg" xmlns:xlink="http://www.w3.org/1999/xlink" width="128px" height="96px" viewBox="0 0 128 96" version="1.1">
<g id="surface1">
<path style=" stroke:none;fill-rule:nonzero;fill:rgb(80.392158%,40.392157%,60.000002%);fill-opacity:1;" d="M 110.140625 55.257812 C 105.6875 55.28125 101.816406 56.351562 98.578125 57.9375 C 97.386719 55.582031 96.199219 53.484375 95.988281 51.945312 C 95.753906 50.152344 95.476562 49.054688 95.753906 46.910156 C 96.035156 44.765625 97.292969 41.710938 97.269531 41.476562 C 97.246094 41.246094 96.992188 40.148438 94.425781 40.125 C 91.863281 40.101562 89.648438 40.613281 89.390625 41.292969 C 89.132812 41.96875 88.644531 43.507812 88.316406 45.089844 C 87.875 47.421875 83.1875 55.746094 80.507812 60.105469 C 79.644531 58.40625 78.898438 56.914062 78.734375 55.722656 C 78.503906 53.929688 78.222656 52.832031 78.503906 50.6875 C 78.78125 48.542969 80.039062 45.488281 80.015625 45.253906 C 79.996094 45.023438 79.738281 43.925781 77.171875 43.902344 C 74.609375 43.878906 72.394531 44.390625 72.136719 45.066406 C 71.878906 45.746094 71.601562 47.328125 71.066406 48.867188 C 70.527344 50.40625 64.304688 64.304688 62.671875 67.894531 C 61.832031 69.734375 61.109375 71.203125 60.597656 72.207031 C 60.597656 72.207031 60.574219 72.277344 60.503906 72.394531 C 60.058594 73.257812 59.804688 73.722656 59.804688 73.722656 C 59.804688 73.722656 59.804688 73.722656 59.804688 73.746094 C 59.453125 74.375 59.082031 74.957031 58.894531 74.957031 C 58.753906 74.957031 58.496094 73.28125 58.941406 70.996094 C 59.875 66.167969 62.089844 58.660156 62.066406 58.40625 C 62.066406 58.265625 62.484375 56.957031 60.621094 56.28125 C 58.800781 55.605469 58.148438 56.726562 57.984375 56.726562 C 57.820312 56.726562 57.703125 57.121094 57.703125 57.121094 C 57.703125 57.121094 59.734375 48.683594 53.835938 48.683594 C 50.152344 48.683594 45.066406 52.714844 42.550781 56.351562 C 40.964844 57.214844 37.582031 59.058594 33.96875 61.039062 C 32.59375 61.808594 31.171875 62.578125 29.84375 63.300781 C 29.75 63.207031 29.65625 63.089844 29.5625 62.996094 C 22.429688 55.375 9.234375 49.988281 9.792969 39.753906 C 10.003906 36.023438 11.285156 26.230469 35.136719 14.339844 C 54.765625 4.664062 70.386719 7.34375 73.09375 13.289062 C 76.964844 21.777344 64.722656 37.539062 44.4375 39.820312 C 36.699219 40.683594 32.640625 37.699219 31.617188 36.582031 C 30.542969 35.414062 30.378906 35.347656 29.984375 35.578125 C 29.332031 35.929688 29.75 36.976562 29.984375 37.582031 C 30.589844 39.167969 33.085938 41.96875 37.304688 43.34375 C 41.035156 44.554688 50.105469 45.230469 61.085938 40.988281 C 73.371094 36.230469 82.976562 23.011719 80.15625 11.9375 C 77.335938 0.699219 58.683594 -3.007812 41.035156 3.265625 C 30.542969 6.996094 19.164062 12.871094 10.980469 20.515625 C 1.257812 29.609375 -0.28125 37.515625 0.351562 40.824219 C 2.609375 52.574219 18.816406 60.222656 25.296875 65.886719 C 24.96875 66.074219 24.667969 66.238281 24.410156 66.378906 C 21.171875 67.988281 8.8125 74.445312 5.734375 81.277344 C 2.238281 89.015625 6.296875 94.566406 8.976562 95.3125 C 17.300781 97.621094 25.855469 93.46875 30.449219 86.617188 C 35.042969 79.761719 34.484375 70.855469 32.363281 66.773438 C 32.339844 66.726562 32.316406 66.679688 32.269531 66.632812 C 33.109375 66.144531 33.96875 65.632812 34.808594 65.140625 C 36.464844 64.164062 38.097656 63.253906 39.496094 62.507812 C 38.703125 64.675781 38.121094 67.265625 37.839844 70.996094 C 37.492188 75.378906 39.285156 81.066406 41.640625 83.304688 C 42.691406 84.285156 43.925781 84.308594 44.71875 84.308594 C 47.46875 84.308594 48.707031 82.023438 50.082031 79.316406 C 51.757812 76.007812 53.273438 72.160156 53.273438 72.160156 C 53.273438 72.160156 51.386719 82.558594 56.515625 82.558594 C 58.382812 82.558594 60.269531 80.132812 61.109375 78.898438 L 61.109375 78.921875 C 61.109375 78.921875 61.15625 78.851562 61.25 78.6875 C 61.433594 78.386719 61.550781 78.199219 61.550781 78.199219 L 61.550781 78.152344 C 62.296875 76.847656 63.976562 73.886719 66.472656 68.964844 C 69.6875 62.625 72.789062 54.699219 72.789062 54.699219 C 72.789062 54.699219 73.070312 56.632812 74.027344 59.851562 C 74.585938 61.738281 75.75 63.8125 76.683594 65.820312 C 75.9375 66.867188 75.472656 67.449219 75.472656 67.449219 C 75.472656 67.449219 75.472656 67.449219 75.496094 67.472656 C 74.886719 68.265625 74.234375 69.128906 73.511719 69.96875 C 70.972656 73 67.941406 76.472656 67.519531 77.476562 C 67.03125 78.664062 67.148438 79.527344 68.082031 80.226562 C 68.757812 80.742188 69.96875 80.808594 71.203125 80.742188 C 73.488281 80.578125 75.097656 80.015625 75.890625 79.667969 C 77.125 79.226562 78.570312 78.546875 79.925781 77.546875 C 82.417969 75.703125 83.933594 73.070312 83.792969 69.59375 C 83.722656 67.683594 83.09375 65.773438 82.324219 63.976562 C 82.558594 63.648438 82.769531 63.324219 83 62.996094 C 86.941406 57.238281 89.996094 50.921875 89.996094 50.921875 C 89.996094 50.921875 90.277344 52.855469 91.230469 56.074219 C 91.699219 57.703125 92.652344 59.476562 93.492188 61.203125 C 89.785156 64.210938 87.5 67.707031 86.6875 69.992188 C 85.214844 74.234375 86.359375 76.148438 88.527344 76.589844 C 89.507812 76.800781 90.90625 76.332031 91.929688 75.890625 C 93.238281 75.472656 94.777344 74.75 96.246094 73.675781 C 98.738281 71.832031 101.140625 69.269531 101 65.796875 C 100.929688 64.210938 100.511719 62.648438 99.929688 61.132812 C 103.074219 59.828125 107.132812 59.105469 112.308594 59.710938 C 123.40625 61.015625 125.597656 67.941406 125.179688 70.855469 C 124.757812 73.769531 122.425781 75.355469 121.660156 75.84375 C 120.890625 76.332031 120.632812 76.496094 120.703125 76.847656 C 120.796875 77.359375 121.167969 77.335938 121.820312 77.242188 C 122.730469 77.078125 127.648438 74.886719 127.859375 69.527344 C 128.210938 62.671875 121.679688 55.1875 110.140625 55.257812 Z M 24.527344 84.121094 C 20.84375 88.132812 15.714844 89.648438 13.5 88.363281 C 11.121094 86.988281 12.054688 81.066406 16.578125 76.824219 C 19.328125 74.234375 22.871094 71.832031 25.226562 70.363281 C 25.761719 70.039062 26.554688 69.574219 27.511719 68.988281 C 27.675781 68.894531 27.769531 68.847656 27.769531 68.847656 C 27.953125 68.734375 28.140625 68.617188 28.328125 68.5 C 29.984375 74.5625 28.398438 79.902344 24.527344 84.121094 Z M 51.339844 65.886719 C 50.058594 69.011719 47.375 77.011719 45.746094 76.566406 C 44.34375 76.195312 43.484375 70.132812 45.464844 64.140625 C 46.46875 61.132812 48.589844 57.542969 49.824219 56.144531 C 51.828125 53.90625 54.042969 53.160156 54.582031 54.066406 C 55.257812 55.257812 52.132812 63.929688 51.339844 65.886719 Z M 73.464844 76.472656 C 72.929688 76.753906 72.417969 76.941406 72.183594 76.800781 C 72.019531 76.707031 72.417969 76.332031 72.417969 76.332031 C 72.417969 76.332031 75.191406 73.347656 76.285156 71.996094 C 76.917969 71.203125 77.664062 70.273438 78.457031 69.222656 L 78.457031 69.527344 C 78.457031 73.09375 75.003906 75.496094 73.464844 76.472656 Z M 90.53125 72.578125 C 90.136719 72.300781 90.207031 71.367188 91.535156 68.453125 C 92.046875 67.3125 93.261719 65.398438 95.335938 63.558594 C 95.570312 64.304688 95.730469 65.027344 95.707031 65.703125 C 95.683594 70.203125 92.46875 71.878906 90.53125 72.578125 Z M 90.53125 72.578125 "/>
</g>
</svg>
